<svg width="80" height="80" viewBox="0 0 80 80" fill="none" xmlns="http://www.w3.org/2000/svg">
<path d="M40 51C49.9411 51 58 42.7173 58 32.5C58 22.2827 49.9411 14 40 14C30.0589 14 22 22.2827 22 32.5C22 42.7173 30.0589 51 40 51Z" fill="#FFD7BB"/>
<path d="M23.4005 39.7842C27.4424 39.7842 30.719 36.6502 30.719 32.7842C30.719 28.9182 27.4424 25.7842 23.4005 25.7842C19.3586 25.7842 16.082 28.9182 16.082 32.7842C16.082 36.6502 19.3586 39.7842 23.4005 39.7842Z" fill="#FFD7BB"/>
<path d="M56.7638 39.7842C60.8057 39.7842 64.0823 36.6502 64.0823 32.7842C64.0823 28.9182 60.8057 25.7842 56.7638 25.7842C52.7219 25.7842 49.4453 28.9182 49.4453 32.7842C49.4453 36.6502 52.7219 39.7842 56.7638 39.7842Z" fill="#FFD7BB"/>
<path d="M39.5 56C41.7084 56 43.5365 54.4056 43.9188 52.3081C43.9663 52.0447 44 51.7773 44 51.5V47H35V51.5C35 51.7773 35.0337 52.0447 35.0812 52.3081C35.4635 54.4056 37.2916 56 39.5 56Z" fill="#FFD7BB"/>
<path d="M60.9977 26.538C61.1818 13.9925 50.4182 3.75092 37.6731 5.12368C27.8702 6.17935 20.0186 14.1691 19.096 24.0132C19.0019 25.0147 18.9779 26.0041 19.0199 26.9755C19.0199 26.9755 20.8012 26.55 22.3863 30L25.2082 27.6238C25.2082 27.6238 25.4159 28.3032 24.7867 29.731C29.5491 28.4807 33.5565 24.2074 35.32 19.7942C40.2592 23.219 51.9684 28.0664 58.626 27.6238C58.8381 27.6097 59.0823 27.5354 59.3245 27.4331C59.9669 27.0698 60.5053 26.3975 60.9997 26.542L60.9977 26.538Z" fill="#1A1D20"/>
<path d="M68.4374 73.9555L67.3625 69.5482C66.9449 67.8332 66.3935 66.1404 65.5224 64.6088C63.3986 60.8766 60.048 57.9646 56.0001 56.4128L47.5906 53.1904C46.5557 52.7934 45.4968 52.5012 44.4259 52.2715C44.0403 54.4056 42.1961 56.0279 39.9684 56.0279C37.7407 56.0279 35.8966 54.4056 35.511 52.2715C34.44 52.5012 33.3811 52.7954 32.3462 53.1904L23.9367 56.4128C19.8889 57.9646 16.5363 60.8766 14.4144 64.6088C13.5433 66.1404 12.9919 67.8332 12.5743 69.5482L11.4994 73.9555C11.3376 74.6226 11.8371 75.2655 12.5164 75.2655H67.4225C68.1018 75.2655 68.6013 74.6226 68.4374 73.9555Z" fill="#B0E3FF"/>
<path d="M34.853 34.1641C35.9152 34.1641 36.7763 33.0448 36.7763 31.6641C36.7763 30.2833 35.9152 29.1641 34.853 29.1641C33.7908 29.1641 32.9297 30.2833 32.9297 31.6641C32.9297 33.0448 33.7908 34.1641 34.853 34.1641Z" fill="#1A1D20"/>
<path d="M45.0073 34.1641C46.0695 34.1641 46.9306 33.0448 46.9306 31.6641C46.9306 30.2833 46.0695 29.1641 45.0073 29.1641C43.9451 29.1641 43.084 30.2833 43.084 31.6641C43.084 33.0448 43.9451 34.1641 45.0073 34.1641Z" fill="#1A1D20"/>
</svg>
