<svg width="80" height="80" viewBox="0 0 80 80" fill="none" xmlns="http://www.w3.org/2000/svg">
<path d="M8 18H44V66C44 68.2091 42.2091 70 40 70H12C9.79086 70 8 68.2091 8 66V18Z" fill="#F2F2F3"/>
<path d="M8 30.5H44V66.4494C44 68.6865 42.2091 70.5 40 70.5H12C9.79086 70.5 8 68.6865 8 66.4494V30.5Z" fill="#54C3FF"/>
<path d="M46.7897 48.4222C46.9286 48.1445 47.0009 47.8383 47.0009 47.5278V27H64.0009V47.5278C64.0009 47.8383 64.0732 48.1445 64.212 48.4222L73.5537 67.1055C74.2186 68.4353 73.2516 69.9999 71.7648 69.9999H39.237C37.7502 69.9999 36.7832 68.4353 37.4481 67.1055L46.7897 48.4222Z" fill="#F2F2F3"/>
<path d="M46.6503 48.4223C46.7872 48.1446 46.8584 47.8384 46.8584 47.5279V45H63.6104V47.5279C63.6104 47.8384 63.6816 48.1446 63.8184 48.4223L73.0238 67.1056C73.679 68.4354 72.7261 70 71.261 70H39.2077C37.7427 70 36.7898 68.4354 37.445 67.1056L46.6503 48.4223Z" fill="#B0E3FF"/>
<path d="M6 16C6 14.8954 6.89543 14 8 14H44C45.1046 14 46 14.8954 46 16C46 17.1046 45.1046 18 44 18H8C6.89543 18 6 17.1046 6 16Z" fill="#F2F2F3"/>
<path d="M45 25C45 23.8954 45.8954 23 47 23H64C65.1046 23 66 23.8954 66 25C66 26.1046 65.1046 27 64 27H47C45.8954 27 45 26.1046 45 25Z" fill="#F2F2F3"/>
<path d="M8 36H18C19.1046 36 20 36.8954 20 38C20 39.1046 19.1046 40 18 40H8V36Z" fill="#8AD6FF"/>
<path d="M8 48H18C19.1046 48 20 48.8954 20 50C20 51.1046 19.1046 52 18 52H8V48Z" fill="#8AD6FF"/>
<path d="M8 60H18C19.1046 60 20 60.8954 20 62C20 63.1046 19.1046 64 18 64H8V60Z" fill="#8AD6FF"/>
</svg>
