<svg width="80" height="80" viewBox="0 0 80 80" fill="none" xmlns="http://www.w3.org/2000/svg">
<path d="M40.75 3H50.5746C51.2238 3 51.75 3.53749 51.75 4.20052V10.7995C51.75 11.4625 51.2238 12 50.5746 12H40.75V3Z" fill="#0097E8"/>
<path d="M41 18.4531V3.49101C41 3.21078 40.89 2.95754 40.716 2.77072C40.534 2.5756 40.282 2.45312 40 2.45312C39.448 2.45312 39 2.9181 39 3.49101V18.4531C39.632 18.1044 40.368 18.1044 41 18.4531Z" fill="#00466B"/>
<path d="M51.3438 74.7149H67.6817C70.0637 74.7149 71.9958 72.9169 71.9958 70.7003V36.7188H51.3438V74.7149Z" fill="#DCDCDC"/>
<path d="M8 36.7167V70.6982C8 72.9149 9.932 74.7128 12.314 74.7128H28.652V36.7148L8 36.7167Z" fill="#DCDCDC"/>
<path d="M72 34.4718V36.6211H51.34L40 25.2778L28.66 36.6211H8V34.4718C8 32.1037 9.94 30.1733 12.32 30.1733H26.5L38.48 18.2131C38.62 18.0539 38.82 17.9743 39 17.8748C39.64 17.5365 40.36 17.5365 41 17.8748C41.18 17.9743 41.38 18.0539 41.52 18.2131L53.5 30.1733H67.68C70.06 30.1733 72 32.1037 72 34.4718Z" fill="#0097E8"/>
<path d="M40.1562 25L51.6562 36.5708V76.3766C51.6562 77.2732 50.9303 78 50.0348 78H30.2777C29.3822 78 28.6562 77.2732 28.6562 76.3766V36.5708L40.1562 25Z" fill="#EFF9FF"/>
<path d="M47.3984 44.1133C47.3984 48.1993 44.086 51.5117 40 51.5117C35.914 51.5117 32.6016 48.1993 32.6016 44.1133C32.6016 40.0272 35.914 36.7148 40 36.7148C44.086 36.7148 47.3984 40.0272 47.3984 44.1133Z" fill="#B0E3FF"/>
</svg>
