<svg width="80" height="80" viewBox="0 0 80 80" fill="none" xmlns="http://www.w3.org/2000/svg">
<path d="M64.1372 11H21.5238C19.8377 11 18.2395 11.7199 17.1481 12.9129C17.1222 12.9432 17.0982 12.9756 17.0723 13.0059C16.9007 13.2021 16.7411 13.4104 16.5994 13.6308C16.4677 13.8411 16.352 14.0594 16.2482 14.2879C16.2143 14.3587 16.1724 14.4255 16.1405 14.4982C15.9729 14.9047 15.8671 15.3394 15.7973 15.7863C15.7454 16.1281 15.7135 16.4678 15.7195 16.7974C15.7235 16.9511 15.7494 17.0967 15.7634 17.2483C15.7893 17.5051 15.8172 17.7599 15.8751 18.0046C15.913 18.1623 15.9649 18.3099 16.0148 18.4616C16.0886 18.686 16.1664 18.9064 16.2662 19.1167C16.336 19.2644 16.4138 19.4039 16.4936 19.5434C16.6074 19.7396 16.7311 19.9296 16.8688 20.1116C16.9645 20.239 17.0643 20.3644 17.172 20.4837C17.3237 20.6535 17.4873 20.8092 17.6569 20.9589C17.7746 21.064 17.8923 21.1672 18.018 21.2622C18.2056 21.4017 18.4091 21.521 18.6146 21.6363C18.7463 21.7091 18.872 21.79 19.0097 21.8527C19.2451 21.9598 19.4946 22.0387 19.746 22.1135C19.8697 22.1499 19.9894 22.2005 20.1171 22.2308C20.5042 22.3157 20.9032 22.3683 21.3143 22.3683H64.1352C66.1145 22.3683 67.7188 23.9941 67.7188 26V14.6337C67.7188 12.6278 66.1145 11.002 64.1352 11.002L64.1372 11Z" fill="#F2F2F3"/>
<path d="M21.729 26.3923C16.4427 26.3923 12.1562 22.1866 12.1562 17V63.255C12.1562 68.0864 16.1471 72 21.0692 72H64.5436C66.539 72 68.1562 70.4132 68.1562 68.4554V26.3923H21.729Z" fill="#0097E8"/>
<path d="M15.825 17.1088C15.7646 17.4418 15.7244 17.7748 15.7445 18.0881C15.7445 18.2448 15.7646 18.3819 15.7848 18.519C15.8049 18.7737 15.8451 19.0283 15.9054 19.2633C15.9256 19.4004 15.9859 19.5571 16.0462 19.6942C16.1066 19.9097 16.1871 20.1251 16.2876 20.3406C16.3681 20.4777 16.4485 20.6148 16.529 20.7519C16.6296 20.9478 16.7704 21.124 16.8911 21.3003C16.9916 21.4178 17.0922 21.5354 17.2129 21.6529C17.3537 21.8292 17.5146 21.9663 17.6957 22.123C17.8164 22.2209 17.9371 22.3188 18.0577 22.4168C18.2589 22.5539 18.46 22.6714 18.6612 22.7693C18.802 22.8477 18.9227 22.926 19.0635 22.9848C19.3049 23.0827 19.5462 23.161 19.8077 23.2394C19.9284 23.2786 20.0491 23.3177 20.1698 23.3569C20.5721 23.4353 20.9744 23.4744 21.3767 23.4744H64.5434C66.5549 23.4744 68.1641 25.0609 68.1641 27H21.7388C16.4485 27 12.1641 22.8281 12.1641 17.6768C12.1641 12.8781 16.1468 9 21.075 9H64.6037C66.575 9 68.1641 10.5473 68.1641 12.4668V15.9924C68.1641 14.0533 66.5549 12.4668 64.5434 12.4668H21.598C19.8882 12.4668 18.279 13.1719 17.1727 14.3275C17.1526 14.3471 17.1325 14.3863 17.1123 14.4059C16.9313 14.6017 16.7704 14.7976 16.6296 15.0131C16.4888 15.2285 16.3882 15.444 16.2675 15.6594C16.2474 15.7182 16.1871 15.7965 16.1669 15.8553C16.0261 16.1882 15.9054 16.5212 15.8451 16.8934C15.825 16.9521 15.825 17.0305 15.825 17.1088Z" fill="#00A6FF"/>
<path d="M60 38.2266L60 31.2266L31 31.2266L31 38.2266L60 38.2266Z" fill="#54C3FF"/>
<path d="M24.6953 22H33.6953V40L29.1953 37.145L24.6953 40V22Z" fill="white"/>
</svg>
