<svg width="80" height="80" viewBox="0 0 80 80" fill="none" xmlns="http://www.w3.org/2000/svg">
<path d="M74.5552 40.7759C74.5552 59.9841 58.9838 75.5554 39.7756 75.5554C20.5674 75.5554 4.99609 59.9841 4.99609 40.7759C4.99609 21.5677 20.5674 5.99634 39.7756 5.99634C58.9838 5.99634 74.5552 21.5677 74.5552 40.7759Z" fill="#00A6FF"/>
<path d="M70.9571 40.7759C70.9571 57.997 56.9966 71.9576 39.7754 71.9576C22.5543 71.9576 8.59375 57.997 8.59375 40.7759C8.59375 23.5547 22.5543 9.59424 39.7754 9.59424C56.9966 9.59424 70.9571 23.5547 70.9571 40.7759Z" fill="white"/>
<path d="M3.02265 21.1628C1.61459 19.7547 0.910562 19.0507 0.646781 18.2389C0.414752 17.5248 0.414752 16.7555 0.646781 16.0414C0.910562 15.2296 1.61459 14.5255 3.02265 13.1175L11.2001 4.94009C12.6081 3.53203 13.3121 2.828 14.124 2.56422C14.8381 2.33219 15.6073 2.33219 16.3214 2.56422C17.1333 2.828 17.8373 3.53203 19.2453 4.94009L20.2848 5.9795C21.6928 7.38756 22.3968 8.09159 22.6606 8.90342C22.8927 9.61753 22.8927 10.3868 22.6606 11.1009C22.3968 11.9127 21.6928 12.6167 20.2848 14.0248L12.1074 22.2022C10.6993 23.6103 9.99527 24.3143 9.18344 24.5781C8.46933 24.8101 7.70009 24.8101 6.98598 24.5781C6.17415 24.3143 5.47012 23.6103 4.06206 22.2022L3.02265 21.1628Z" fill="#00A6FF"/>
<path d="M76.5281 21.1628C77.9362 19.7547 78.6402 19.0507 78.904 18.2389C79.136 17.5248 79.136 16.7555 78.904 16.0414C78.6402 15.2296 77.9362 14.5255 76.5281 13.1175L68.3507 4.94009C66.9427 3.53203 66.2386 2.828 65.4268 2.56422C64.7127 2.33219 63.9435 2.33219 63.2294 2.56422C62.4175 2.828 61.7135 3.53203 60.3054 4.94009L59.266 5.9795C57.858 7.38756 57.1539 8.09159 56.8902 8.90342C56.6581 9.61753 56.6581 10.3868 56.8902 11.1009C57.1539 11.9127 57.858 12.6167 59.266 14.0248L67.4434 22.2022C68.8515 23.6103 69.5555 24.3143 70.3673 24.5781C71.0815 24.8101 71.8507 24.8101 72.5648 24.5781C73.3766 24.3143 74.0807 23.6103 75.4887 22.2022L76.5281 21.1628Z" fill="#00A6FF"/>
<path d="M46.9727 2.84444C46.9727 1.84879 46.9727 1.35097 46.7789 0.970684C46.6084 0.636173 46.3365 0.364208 46.002 0.193766C45.6217 1.18106e-07 45.1239 1.61627e-07 44.1282 2.48669e-07L35.4256 1.00948e-06C34.4299 1.09652e-06 33.9321 1.14004e-06 33.5518 0.193767C33.2173 0.364209 32.9453 0.636174 32.7749 0.970685C32.5811 1.35097 32.5811 1.8488 32.5811 2.84445L32.5811 4.35132C32.5811 5.34697 32.5811 5.8448 32.7749 6.22508C32.9453 6.55959 33.2173 6.83156 33.5518 7.002C33.9321 7.19577 34.4299 7.19577 35.4256 7.19577L44.1282 7.19577C45.1239 7.19577 45.6217 7.19577 46.002 7.002C46.3365 6.83156 46.6084 6.55959 46.7789 6.22508C46.9727 5.84479 46.9727 5.34697 46.9727 4.35132L46.9727 2.84444Z" fill="#00A6FF"/>
<g filter="url(#filter0_d_2651_7103)">
<path d="M40.3984 23.9854C41.3802 23.9854 42.1758 24.7819 42.1758 25.7637V36.6211C43.6097 37.4505 44.5752 39.0007 44.5752 40.7764C44.5752 40.898 44.5675 41.0183 44.5586 41.1377L59.0098 49.4814C59.8601 49.9724 60.1521 51.0599 59.6611 51.9102L59.04 52.9854C58.5491 53.8356 57.4616 54.1266 56.6113 53.6357L41.8389 45.1074C41.2143 45.4052 40.5154 45.5732 39.7773 45.5732C37.1282 45.5731 34.9807 43.4255 34.9805 40.7764C34.9805 39.0009 35.9452 37.4506 37.3789 36.6211V25.7637C37.3789 24.782 38.1746 23.9856 39.1562 23.9854H40.3984Z" fill="#00A6FF"/>
</g>
<path d="M65.5582 75.7091C65.9403 76.4738 65.724 77.4021 65.0434 77.9192L64.889 78.0365C64.1862 78.5704 63.1982 78.508 62.5683 77.8898L55.5436 70.9958C54.7735 70.24 54.8488 68.978 55.7033 68.3191L58.4416 66.2078C59.3278 65.5245 60.6173 65.82 61.1174 66.8211L65.5582 75.7091Z" fill="#00A6FF"/>
<path d="M14.1683 75.7091C13.7863 76.4738 14.0025 77.4021 14.6832 77.9192L14.8376 78.0365C15.5403 78.5704 16.5284 78.508 17.1583 77.8898L24.183 70.9958C24.9531 70.24 24.8778 68.978 24.0233 68.3191L21.285 66.2078C20.3988 65.5245 19.1093 65.82 18.6091 66.8211L14.1683 75.7091Z" fill="#00A6FF"/>
<path d="M66.7808 38.3774C67.7627 38.3774 68.5586 39.1734 68.5586 40.1552L68.5586 41.3968C68.5586 42.3787 67.7627 43.1746 66.7808 43.1746L60.742 43.1746C59.7602 43.1746 58.9642 42.3787 58.9642 41.3968L58.9642 40.1552C58.9642 39.1734 59.7602 38.3774 60.742 38.3774L66.7808 38.3774Z" fill="#C4C5C6"/>
<path d="M42.1758 67.7813C42.1758 68.7631 41.3798 69.5591 40.398 69.5591L39.1564 69.5591C38.1745 69.5591 37.3786 68.7631 37.3786 67.7813L37.3786 61.7425C37.3786 60.7607 38.1745 59.9647 39.1564 59.9647L40.398 59.9647C41.3798 59.9647 42.1758 60.7607 42.1758 61.7425L42.1758 67.7813Z" fill="#C4C5C6"/>
<path d="M18.8101 38.3774C19.792 38.3774 20.5879 39.1734 20.5879 40.1552L20.5879 41.3968C20.5879 42.3787 19.792 43.1746 18.8101 43.1746L12.7713 43.1746C11.7895 43.1746 10.9935 42.3787 10.9935 41.3968L10.9935 40.1552C10.9935 39.1734 11.7895 38.3774 12.7713 38.3774L18.8101 38.3774Z" fill="#C4C5C6"/>
<path d="M42.1758 19.8096C42.1758 20.7915 41.3798 21.5874 40.398 21.5874L39.1564 21.5874C38.1745 21.5874 37.3786 20.7915 37.3786 19.8096L37.3786 13.7708C37.3786 12.789 38.1745 11.993 39.1564 11.993L40.398 11.993C41.3798 11.993 42.1758 12.789 42.1758 13.7708L42.1758 19.8096Z" fill="#C4C5C6"/>
<defs>
<filter id="filter0_d_2651_7103" x="32.9805" y="22.9854" width="28.9199" height="33.8889" filterUnits="userSpaceOnUse" color-interpolation-filters="sRGB">
<feFlood flood-opacity="0" result="BackgroundImageFix"/>
<feColorMatrix in="SourceAlpha" type="matrix" values="0 0 0 0 0 0 0 0 0 0 0 0 0 0 0 0 0 0 127 0" result="hardAlpha"/>
<feOffset dy="1"/>
<feGaussianBlur stdDeviation="1"/>
<feComposite in2="hardAlpha" operator="out"/>
<feColorMatrix type="matrix" values="0 0 0 0 0 0 0 0 0 0 0 0 0 0 0 0 0 0 0.2 0"/>
<feBlend mode="normal" in2="BackgroundImageFix" result="effect1_dropShadow_2651_7103"/>
<feBlend mode="normal" in="SourceGraphic" in2="effect1_dropShadow_2651_7103" result="shape"/>
</filter>
</defs>
</svg>
