<svg width="87" height="100" viewBox="0 0 87 100" fill="none" xmlns="http://www.w3.org/2000/svg">
<g clip-path="url(#clip0_2651_7102)">
<path d="M6.33594 33.867C6.33594 27.1464 6.33594 23.786 7.64386 21.2191C8.79434 18.9612 10.6301 17.1254 12.8881 15.9749C15.455 14.667 18.8153 14.667 25.5359 14.667H67.8004C74.521 14.667 77.8813 14.667 80.4483 15.9749C82.7062 17.1254 84.542 18.9612 85.6925 21.2191C87.0004 23.786 87.0004 27.1464 87.0004 33.867V105.467C87.0004 112.188 87.0004 115.548 85.6925 118.115C84.542 120.373 82.7062 122.209 80.4483 123.359C77.8813 124.667 74.521 124.667 67.8004 124.667H25.5359C18.8153 124.667 15.455 124.667 12.8881 123.359C10.6301 122.209 8.79434 120.373 7.64386 118.115C6.33594 115.548 6.33594 112.188 6.33594 105.467V33.867Z" fill="#00A6FF"/>
<path d="M10.3125 31.133C10.3125 26.6526 10.3125 24.4124 11.1844 22.7011C11.9514 21.1958 13.1753 19.9719 14.6806 19.205C16.3919 18.333 18.6321 18.333 23.1125 18.333H70.2101C74.6905 18.333 76.9307 18.333 78.642 19.205C80.1473 19.9719 81.3711 21.1958 82.1381 22.7011C83.0101 24.4124 83.0101 26.6526 83.0101 31.133V118.283C83.0101 122.763 83.0101 125.004 82.1381 126.715C81.3711 128.22 80.1473 129.444 78.642 130.211C76.9307 131.083 74.6905 131.083 70.2101 131.083H23.1125C18.6321 131.083 16.3919 131.083 14.6806 130.211C13.1753 129.444 11.9514 128.22 11.1844 126.715C10.3125 125.004 10.3125 122.763 10.3125 118.283V31.133Z" fill="#F2F2F3"/>
<g filter="url(#filter0_d_2651_7102)">
<rect x="1" y="34.833" width="25.666" height="25.6667" rx="4.66667" fill="white" shape-rendering="crispEdges"/>
<rect x="0.416667" y="34.2497" width="26.8326" height="26.8333" rx="5.25" stroke="#8AD6FF" stroke-width="1.16667" shape-rendering="crispEdges"/>
<path d="M21.6499 43.4148C21.1823 42.8614 20.4244 42.8614 19.9568 43.4148L12.0226 52.8039L8.87786 49.0826C8.41026 48.5292 7.6523 48.5292 7.18469 49.0826C6.71708 49.6359 6.71708 50.5329 7.18469 51.0862L10.6116 55.1415C11.3909 56.0636 12.6542 56.0636 13.4335 55.1415L21.6499 45.4184C22.1176 44.8651 22.1176 43.9681 21.6499 43.4148Z" fill="#00A6FF"/>
<path d="M20.8029 42.4167C21.2917 42.4169 21.7576 42.6387 22.0949 43.0378C22.7462 43.8085 22.746 45.0239 22.0949 45.7947L13.8781 55.5183C13.3849 56.1018 12.7148 56.4167 12.0217 56.4167C11.3286 56.4167 10.6585 56.1019 10.1652 55.5183L6.73849 51.4626C6.08717 50.6919 6.08717 49.4766 6.73849 48.7058C7.07588 48.3067 7.54157 48.0837 8.03048 48.0837C8.51938 48.0837 8.98507 48.3067 9.32247 48.7058L12.0217 51.9001L19.51 43.0378C19.8474 42.6386 20.3139 42.4167 20.8029 42.4167ZM20.8029 43.5828C20.6792 43.5828 20.5318 43.6377 20.4016 43.7917L12.0217 53.7078L8.43185 49.4587C8.30166 49.3047 8.15426 49.2507 8.03048 49.2507C7.9067 49.2507 7.75929 49.3047 7.62911 49.4587C7.34526 49.7946 7.34535 50.3737 7.62911 50.7097L11.0559 54.7654C11.3419 55.1038 11.6936 55.2497 12.0217 55.2498C12.3497 55.2498 12.7015 55.1038 12.9875 54.7654L21.2033 45.0417C21.4872 44.7058 21.4871 44.1277 21.2033 43.7917C21.0733 43.6378 20.9267 43.5829 20.8029 43.5828Z" fill="#00A6FF"/>
</g>
<path d="M74.332 34.5833C75.9889 34.5833 77.332 35.9264 77.332 37.5833C77.332 39.2401 75.9889 40.5833 74.332 40.5833H34C32.3431 40.5833 31 39.2401 31 37.5833C31 35.9264 32.3431 34.5833 34 34.5833H74.332Z" fill="#00A6FF"/>
<path d="M62.416 45.5833C64.0728 45.5833 65.416 46.9264 65.416 48.5833C65.416 50.2401 64.0728 51.5832 62.416 51.5833H34C32.3431 51.5833 31 50.2401 31 48.5833C31 46.9264 32.3431 45.5833 34 45.5833H62.416Z" fill="#C4C5C6"/>
<path d="M62.416 54.75C64.0728 54.7501 65.416 56.0932 65.416 57.75C65.416 59.4068 64.0728 60.7499 62.416 60.75H34C32.3431 60.75 31 59.4069 31 57.75C31 56.0931 32.3431 54.75 34 54.75H62.416Z" fill="#C4C5C6"/>
<g filter="url(#filter1_d_2651_7102)">
<rect x="21" y="71.5" width="18.3328" height="18.3333" rx="3.33333" fill="white" shape-rendering="crispEdges"/>
<rect x="20.5833" y="71.0833" width="19.1662" height="19.1667" rx="3.75" stroke="#8AD6FF" stroke-width="0.833333" shape-rendering="crispEdges"/>
<path d="M35.7488 77.6299C35.4148 77.2347 34.8734 77.2347 34.5394 77.6299L28.8721 84.3364L26.6259 81.6784C26.2919 81.2831 25.7505 81.2831 25.4165 81.6784C25.0825 82.0736 25.0825 82.7143 25.4165 83.1095L27.8643 86.0062C28.421 86.6648 29.3233 86.6648 29.88 86.0062L35.7488 79.0611C36.0829 78.6659 36.0829 78.0252 35.7488 77.6299Z" fill="#00A6FF"/>
<path d="M35.1448 76.9165C35.494 76.9166 35.8267 77.0757 36.0677 77.3608C36.5327 77.9112 36.5325 78.7791 36.0677 79.3296L30.1985 86.2749C29.8462 86.6918 29.3675 86.9165 28.8724 86.9165C28.3772 86.9165 27.8985 86.6918 27.5462 86.2749L25.0989 83.3784C24.6337 82.8279 24.6337 81.9602 25.0989 81.4097C25.3399 81.1245 25.6725 80.9653 26.0218 80.9653C26.371 80.9654 26.7037 81.1245 26.9446 81.4097L28.8714 83.6909L34.221 77.3608C34.462 77.0756 34.7955 76.9165 35.1448 76.9165ZM35.1448 77.7505C35.0564 77.7505 34.9507 77.7889 34.8577 77.8989L28.8724 84.9819L26.3079 81.9478C26.215 81.8378 26.1101 81.7984 26.0218 81.7983C25.9334 81.7983 25.8277 81.8377 25.7347 81.9478C25.5324 82.1877 25.5323 82.6005 25.7347 82.8403L28.1829 85.7368C28.3872 85.9786 28.638 86.0835 28.8724 86.0835C29.1067 86.0835 29.3575 85.9786 29.5618 85.7368L35.431 78.7925C35.6337 78.5525 35.6337 78.1389 35.431 77.8989C35.3381 77.789 35.2332 77.7506 35.1448 77.7505Z" fill="#00A6FF"/>
</g>
<path d="M72.3301 71.333C73.4346 71.333 74.3301 72.2285 74.3301 73.333C74.3301 74.4376 73.4346 75.333 72.3301 75.333H46.6641C45.5595 75.333 44.6641 74.4376 44.6641 73.333C44.6641 72.2284 45.5595 71.333 46.6641 71.333H72.3301Z" fill="#00A6FF"/>
<path d="M64.9971 78.6665C66.1016 78.6666 66.9971 79.562 66.9971 80.6665C66.9971 81.771 66.1016 82.6664 64.9971 82.6665H46.6641C45.5595 82.6665 44.6641 81.7711 44.6641 80.6665C44.6641 79.5619 45.5595 78.6665 46.6641 78.6665H64.9971Z" fill="#C4C5C6"/>
<path d="M64.9971 86C66.1016 86.0001 66.9971 86.8955 66.9971 88C66.9971 89.1045 66.1016 89.9999 64.9971 90H46.6641C45.5595 90 44.6641 89.1046 44.6641 88C44.6641 86.8954 45.5595 86 46.6641 86H64.9971Z" fill="#C4C5C6"/>
<path d="M23.3094 10.8369C23.5596 8.83516 25.2612 7.33301 27.2785 7.33301H46.6634V21.9997H21.9141L23.3094 10.8369Z" fill="#00A6FF"/>
<path d="M70.0174 10.8369C69.7672 8.83516 68.0656 7.33301 66.0483 7.33301H46.6634V21.9997H71.4127L70.0174 10.8369Z" fill="#00A6FF"/>
<path d="M53.9983 7.33333C53.9983 11.3834 50.7151 14.6667 46.6652 14.6667C42.6152 14.6667 39.332 11.3834 39.332 7.33333C39.332 3.28325 42.6152 0 46.6652 0C50.7151 0 53.9983 3.28325 53.9983 7.33333Z" fill="#00A6FF"/>
<path d="M51.2484 7.33333C51.2484 9.86464 49.1965 11.9167 46.6652 11.9167C44.134 11.9167 42.082 9.86464 42.082 7.33333C42.082 4.80203 44.134 2.75 46.6652 2.75C49.1965 2.75 51.2484 4.80203 51.2484 7.33333Z" fill="white"/>
<path d="M21.9141 22H71.4127V23.8333H21.9141V22Z" fill="#005B8C"/>
<path d="M1 74H87V100H1V74Z" fill="url(#paint0_linear_2651_7102)"/>
</g>
<defs>
<filter id="filter0_d_2651_7102" x="-2.49935" y="32.4996" width="32.6647" height="32.6667" filterUnits="userSpaceOnUse" color-interpolation-filters="sRGB">
<feFlood flood-opacity="0" result="BackgroundImageFix"/>
<feColorMatrix in="SourceAlpha" type="matrix" values="0 0 0 0 0 0 0 0 0 0 0 0 0 0 0 0 0 0 127 0" result="hardAlpha"/>
<feOffset dy="1.16667"/>
<feGaussianBlur stdDeviation="1.16667"/>
<feComposite in2="hardAlpha" operator="out"/>
<feColorMatrix type="matrix" values="0 0 0 0 0 0 0 0 0 0 0 0 0 0 0 0 0 0 0.2 0"/>
<feBlend mode="normal" in2="BackgroundImageFix" result="effect1_dropShadow_2651_7102"/>
<feBlend mode="normal" in="SourceGraphic" in2="effect1_dropShadow_2651_7102" result="shape"/>
</filter>
<filter id="filter1_d_2651_7102" x="18.4993" y="69.8334" width="23.3333" height="23.3333" filterUnits="userSpaceOnUse" color-interpolation-filters="sRGB">
<feFlood flood-opacity="0" result="BackgroundImageFix"/>
<feColorMatrix in="SourceAlpha" type="matrix" values="0 0 0 0 0 0 0 0 0 0 0 0 0 0 0 0 0 0 127 0" result="hardAlpha"/>
<feOffset dy="0.833333"/>
<feGaussianBlur stdDeviation="0.833333"/>
<feComposite in2="hardAlpha" operator="out"/>
<feColorMatrix type="matrix" values="0 0 0 0 0 0 0 0 0 0 0 0 0 0 0 0 0 0 0.2 0"/>
<feBlend mode="normal" in2="BackgroundImageFix" result="effect1_dropShadow_2651_7102"/>
<feBlend mode="normal" in="SourceGraphic" in2="effect1_dropShadow_2651_7102" result="shape"/>
</filter>
<linearGradient id="paint0_linear_2651_7102" x1="44" y1="74" x2="44" y2="100" gradientUnits="userSpaceOnUse">
<stop stop-color="white" stop-opacity="0"/>
<stop offset="1" stop-color="white"/>
</linearGradient>
<clipPath id="clip0_2651_7102">
<rect width="87" height="100" fill="white"/>
</clipPath>
</defs>
</svg>
