<svg width="24" height="24" viewBox="0 0 24 24" fill="none" xmlns="http://www.w3.org/2000/svg">
<path d="M14.8035 13.87C17.1112 12.3315 18.7967 10.7072 19.673 9.34398C20.1122 8.66088 20.3296 8.07178 20.3491 7.60834C20.3684 7.14656 20.1926 6.86585 19.9461 6.70151C19.6995 6.53729 19.279 6.42049 18.5867 6.43337C17.8915 6.44634 17.008 6.59129 15.9833 6.88407C13.9385 7.46833 11.5022 8.59201 9.19451 10.1305C6.887 11.669 5.20208 13.2928 4.32577 14.656C3.88662 15.3391 3.66919 15.9282 3.64973 16.3916C3.63041 16.8532 3.80562 17.1336 4.05194 17.2979C4.29843 17.4623 4.71949 17.5795 5.41213 17.5666C6.10727 17.5536 6.99092 17.4087 8.01552 17.1159C10.0602 16.5317 12.4959 15.4083 14.8035 13.87ZM16.0516 14.702C13.6258 16.3192 11.0083 17.5411 8.71024 18.1977C7.5637 18.5253 6.45337 18.7247 5.46089 18.7432C4.46575 18.7617 3.50412 18.5968 2.80388 18.13C2.10392 17.6632 1.85716 17.0224 1.88489 16.3591C1.91259 15.6975 2.2118 14.9572 2.70312 14.1928C3.688 12.6608 5.52074 10.9157 7.94645 9.29847C10.3724 7.68115 12.9904 6.45891 15.2886 5.80227C16.4351 5.47472 17.5455 5.27523 18.5379 5.25677C19.5328 5.23828 20.494 5.4028 21.1941 5.86944C21.8944 6.33628 22.1417 6.9774 22.1139 7.64084C22.0862 8.30251 21.787 9.04277 21.2957 9.80714C20.3108 11.3393 18.4775 13.0847 16.0516 14.702Z" fill="#00A6FF"/>
<path d="M21.195 18.1305C20.1284 18.8414 18.4832 18.8541 16.891 18.572C15.2481 18.281 13.3673 17.6321 11.4819 16.7221C11.0873 16.5316 10.9988 16.1635 11.2845 15.9003C11.5702 15.6372 12.1223 15.5783 12.5171 15.7687C14.2944 16.6265 15.9781 17.1935 17.3444 17.4355C18.7607 17.6864 19.57 17.5495 19.947 17.2985C20.3758 17.0126 20.569 16.3537 19.9925 15.2096C19.4425 14.1183 18.2805 12.7907 16.6034 11.4442C16.2921 11.1942 16.3438 10.823 16.7187 10.6154C17.0937 10.4079 17.6506 10.4423 17.9619 10.6923C19.7308 12.1125 21.0269 13.5659 21.6663 14.8348C22.2792 16.051 22.3924 17.3322 21.195 18.1305Z" fill="#00A6FF"/>
<path d="M7.19313 13.3179C6.81684 13.524 6.26116 13.4883 5.95157 13.2377C4.21363 11.8288 2.94318 10.3897 2.31951 9.13369C1.72138 7.92907 1.61703 6.66187 2.8046 5.86988C3.87116 5.15882 5.51719 5.14584 7.10944 5.42785C8.75202 5.71884 10.6318 6.36805 12.5169 7.27779C12.9117 7.46833 13.0002 7.83635 12.7144 8.09957C12.4285 8.36253 11.8772 8.42111 11.4825 8.23066C9.70541 7.373 8.02134 6.80685 6.65523 6.5649C5.2389 6.31411 4.4294 6.45078 4.05266 6.70195C3.62799 6.98535 3.43375 7.63492 3.99416 8.7637C4.52935 9.84156 5.66709 11.1543 7.3142 12.4896C7.62379 12.7406 7.56958 13.1115 7.19313 13.3179Z" fill="#00A6FF"/>
<path d="M7.74977 12C7.74977 14.6702 8.29301 17.0503 9.13552 18.7354C10.0005 20.4653 11.0562 21.25 11.9998 21.25C12.9434 21.25 13.9991 20.4653 14.864 18.7354C15.7065 17.0503 16.2498 14.6702 16.2498 12C16.2498 9.3298 15.7065 6.9497 14.864 5.26465C13.9991 3.53473 12.9434 2.75 11.9998 2.75C11.0562 2.75 10.0005 3.53473 9.13552 5.26465C8.29301 6.9497 7.74977 9.3298 7.74977 12ZM6.24977 12C6.24977 9.14742 6.82662 6.52798 7.79372 4.59375C8.73841 2.70438 10.1819 1.25 11.9998 1.25C13.8176 1.25 15.2611 2.70438 16.2058 4.59375C17.1729 6.52798 17.7498 9.14742 17.7498 12C17.7498 14.8526 17.1729 17.472 16.2058 19.4062C15.2611 21.2956 13.8176 22.75 11.9998 22.75C10.1819 22.75 8.73841 21.2956 7.79372 19.4062C6.82662 17.472 6.24977 14.8526 6.24977 12Z" fill="#00A6FF"/>
</svg>
