<svg width="24" height="24" viewBox="0 0 24 24" fill="none" xmlns="http://www.w3.org/2000/svg">
<path d="M14.6544 13.9135C16.9355 12.3392 18.6015 10.6771 19.4678 9.28221C19.9018 8.58323 20.1168 7.98042 20.136 7.5062C20.1551 7.03369 19.9813 6.74645 19.7377 6.57829C19.494 6.41025 19.0783 6.29073 18.394 6.30391C17.7068 6.31718 16.8335 6.46551 15.8206 6.76509C13.7994 7.36294 11.3913 8.51276 9.11016 10.0871C6.82927 11.6613 5.16379 13.3229 4.29758 14.7178C3.8635 15.4168 3.64858 16.0195 3.62935 16.4938C3.61025 16.9661 3.78344 17.2529 4.02691 17.4211C4.27056 17.5893 4.68676 17.7092 5.37141 17.6961C6.05853 17.6828 6.93198 17.5344 7.94476 17.2349C9.96582 16.6371 12.3735 15.4876 14.6544 13.9135ZM15.8881 14.7649C13.4903 16.4197 10.903 17.67 8.63147 18.3418C7.49816 18.677 6.40064 18.8811 5.4196 18.9C4.43595 18.919 3.48541 18.7502 2.79325 18.2725C2.10137 17.7949 1.85746 17.1392 1.88487 16.4605C1.91224 15.7835 2.20801 15.026 2.69366 14.2438C3.66717 12.6761 5.47876 10.8905 7.87649 9.23565C10.2744 7.58071 12.8623 6.33005 15.1339 5.65814C16.2672 5.32297 17.3648 5.11884 18.3458 5.09995C19.3292 5.08103 20.2792 5.24937 20.9713 5.72687C21.6635 6.20457 21.9079 6.86059 21.8805 7.53946C21.8531 8.21652 21.5574 8.97399 21.0717 9.75614C20.0982 11.3239 18.286 13.1099 15.8881 14.7649Z" fill="#00A6FF"/>
<path d="M20.9722 18.2731C19.9179 19.0006 18.2917 19.0135 16.7178 18.7249C15.0939 18.427 13.2348 17.7631 11.3712 16.8319C10.9811 16.6369 10.8937 16.2603 11.176 15.991C11.4585 15.7217 12.0042 15.6615 12.3944 15.8563C14.1512 16.7341 15.8155 17.3143 17.166 17.5619C18.566 17.8186 19.366 17.6786 19.7386 17.4217C20.1624 17.1292 20.3534 16.4549 19.7835 15.2843C19.2399 14.1676 18.0913 12.8091 16.4335 11.4313C16.1259 11.1755 16.177 10.7956 16.5476 10.5832C16.9182 10.3708 17.4687 10.4061 17.7764 10.6619C19.5249 12.1151 20.806 13.6023 21.4381 14.9007C22.0438 16.1452 22.1558 17.4563 20.9722 18.2731Z" fill="#00A6FF"/>
<path d="M7.13186 13.3485C6.75992 13.5595 6.21064 13.5229 5.90462 13.2665C4.18674 11.8248 2.93095 10.3522 2.31447 9.06703C1.72324 7.8344 1.62009 6.53773 2.79396 5.72732C3.84822 4.99972 5.47526 4.98644 7.04914 5.27501C8.67277 5.57277 10.5309 6.23708 12.3942 7.16797C12.7845 7.36294 12.8719 7.73952 12.5894 8.00886C12.3068 8.27793 11.7619 8.33788 11.3718 8.143C9.61515 7.2654 7.95052 6.68608 6.60017 6.4385C5.20018 6.18188 4.40002 6.32173 4.02762 6.57874C3.60785 6.86873 3.41585 7.53341 3.9698 8.68844C4.49881 9.79136 5.62343 11.1346 7.25154 12.501C7.55755 12.7578 7.50397 13.1373 7.13186 13.3485Z" fill="#00A6FF"/>
<path d="M7.68208 12C7.68208 14.7323 8.21905 17.1677 9.05184 18.892C9.90682 20.6621 10.9503 21.4651 11.883 21.4651C12.8158 21.4651 13.8593 20.6621 14.7143 18.892C15.5471 17.1677 16.084 14.7323 16.084 12C16.084 9.2677 15.5471 6.83225 14.7143 5.10801C13.8593 3.33787 12.8158 2.53488 11.8831 2.53488C10.9503 2.53488 9.90682 3.33787 9.05184 5.10801C8.21905 6.83225 7.68209 9.2677 7.68208 12ZM6.19939 12C6.19939 9.08108 6.76958 6.40072 7.72552 4.42151C8.65931 2.4882 10.0862 1 11.8831 1C13.6799 1 15.1068 2.4882 16.0406 4.42151C16.9965 6.40072 17.5667 9.08108 17.5667 12C17.5667 14.9189 16.9965 17.5993 16.0406 19.5785C15.1068 21.5118 13.6799 23 11.883 23C10.0862 23 8.65931 21.5118 7.72552 19.5785C6.76958 17.5993 6.19939 14.9189 6.19939 12Z" fill="#00A6FF"/>
</svg>
