<svg width="24" height="24" viewBox="0 0 24 24" fill="none" xmlns="http://www.w3.org/2000/svg">
<path d="M18.25 6C18.25 4.75736 17.2426 3.75 16 3.75H8C6.75736 3.75 5.75 4.75736 5.75 6V20.8125L11.6777 17.9971C11.8814 17.9003 12.1186 17.9003 12.3223 17.9971L18.25 20.8125V6ZM19.75 22C19.75 22.2572 19.6178 22.4963 19.4004 22.6338C19.183 22.7711 18.91 22.7881 18.6777 22.6777L12 19.5049L5.32227 22.6777C5.08996 22.7881 4.81703 22.7711 4.59961 22.6338C4.38217 22.4963 4.25 22.2572 4.25 22V6C4.25 3.92893 5.92893 2.25 8 2.25H16C18.0711 2.25 19.75 3.92893 19.75 6V22Z" fill="#1A1D20"/>
</svg>
