<svg width="24" height="24" viewBox="0 0 24 24" fill="none" xmlns="http://www.w3.org/2000/svg">
<path d="M18.8693 9.61914C18.8693 5.82547 15.7938 2.75 12.0001 2.75C8.20648 2.75 5.13101 5.82547 5.13101 9.61914V16.6553C5.13101 17.5359 4.41688 18.25 3.53628 18.25H20.464C19.5834 18.25 18.8693 17.5359 18.8693 16.6553V9.61914ZM9.88101 19.75C10.1901 20.6234 11.0208 21.25 12.0001 21.25C12.9795 21.25 13.8102 20.6234 14.1193 19.75H9.88101ZM20.3693 16.6553C20.3693 16.7074 20.4118 16.75 20.464 16.75H20.5109C20.9862 16.75 21.434 16.9755 21.7169 17.3574C22.4498 18.3474 21.7427 19.75 20.5109 19.75H15.675C15.3275 21.4617 13.8144 22.75 12.0001 22.75C10.1859 22.75 8.67281 21.4617 8.32534 19.75H3.48941C2.25759 19.75 1.55048 18.3474 2.28335 17.3574C2.56625 16.9755 3.01413 16.75 3.48941 16.75H3.53628C3.58845 16.75 3.63101 16.7074 3.63101 16.6553V9.61914C3.63101 4.99704 7.37805 1.25 12.0001 1.25C16.6222 1.25 20.3693 4.99704 20.3693 9.61914V16.6553Z" fill="#1A1D20"/>
</svg>
