<svg width="24" height="24" viewBox="0 0 24 24" fill="none" xmlns="http://www.w3.org/2000/svg">
<path d="M18.7016 5.84145C18.7016 4.56851 17.6618 3.53658 16.379 3.53658H8.12097C6.83824 3.53658 5.79839 4.56851 5.79839 5.84145V21.0152L11.9173 18.1311C12.1275 18.032 12.3725 18.032 12.5827 18.1311L18.7016 21.0152V5.84145ZM20.25 22.2317C20.25 22.4952 20.1136 22.7401 19.8891 22.8809C19.6647 23.0216 19.3829 23.039 19.1431 22.9259L12.25 19.6757L5.35685 22.9259C5.11706 23.039 4.83532 23.0216 4.61089 22.8809C4.38643 22.7401 4.25 22.4952 4.25 22.2317V5.84145C4.25 3.71988 5.98309 2 8.12097 2H16.379C18.5169 2 20.25 3.71988 20.25 5.84145V22.2317Z" fill="white"/>
</svg>
