<svg width="24" height="24" viewBox="0 0 24 24" fill="none" xmlns="http://www.w3.org/2000/svg">
<path d="M18.846 9.56377C18.846 5.68188 15.7748 2.53488 11.9863 2.53488C8.19789 2.53488 5.12667 5.68188 5.12667 9.56377V16.7635C5.12667 17.6646 4.41352 18.3953 3.53414 18.3953H20.4385C19.5591 18.3953 18.846 17.6646 18.846 16.7635V9.56377ZM9.87011 19.9302C10.1788 20.824 11.0083 21.4651 11.9863 21.4651C12.9643 21.4651 13.7938 20.824 14.1025 19.9302H9.87011ZM20.3439 16.7635C20.3439 16.8169 20.3864 16.8605 20.4385 16.8605H20.4853C20.9599 16.8605 21.4072 17.0912 21.6897 17.482C22.4216 18.495 21.7154 19.9302 20.4853 19.9302H15.6561C15.3091 21.6817 13.798 23 11.9863 23C10.1746 23 8.66358 21.6817 8.3166 19.9302H3.48733C2.25722 19.9302 1.55108 18.495 2.28294 17.482C2.56545 17.0912 3.01271 16.8605 3.48733 16.8605H3.53414C3.58624 16.8605 3.62874 16.8169 3.62874 16.7635V9.56377C3.62874 4.83418 7.37061 1 11.9863 1C16.602 1 20.3439 4.83418 20.3439 9.56377V16.7635Z" fill="white"/>
</svg>
