<svg width="24" height="24" viewBox="0 0 24 24" fill="none" xmlns="http://www.w3.org/2000/svg">
<path d="M8.5 2C4.91015 2 2 4.91015 2 8.5C2 9.77265 2.36789 10.9585 3 11.9609V14H5.03809C6.04065 14.6324 7.22706 15 8.5 15C12.0899 15 15 12.0899 15 8.5C15 4.91015 12.0899 2 8.5 2Z" fill="white"/>
<path d="M2.30172 8.5C2.30172 5.21486 4.96486 2.55172 8.25 2.55172C11.5351 2.55172 14.1983 5.21486 14.1983 8.5C14.1983 11.7851 11.5351 14.4483 8.25 14.4483C7.08477 14.4483 6.00052 14.1118 5.08291 13.533C4.959 13.4548 4.81521 13.4138 4.66871 13.4138H3.33621V12.0803C3.33621 11.9338 3.29512 11.79 3.217 11.6661C2.63836 10.7484 2.30172 9.66471 2.30172 8.5ZM0.750001 8.5C0.750001 9.88566 1.12906 11.1829 1.78448 12.2965V14.1897C1.78448 14.6182 2.13185 14.9655 2.56035 14.9655H4.45151C5.56556 15.6215 6.86391 16 8.25 16C12.3921 16 15.75 12.6421 15.75 8.5C15.75 4.35786 12.3921 1 8.25 1C4.10786 1 0.750001 4.35786 0.750001 8.5Z" fill="#3F4247"/>
<path d="M14.5 7C18.6421 7 22 10.3579 22 14.5C22 15.9684 21.5755 17.3368 20.8462 18.4934V20.8462H18.4945C17.3377 21.5758 15.9688 22 14.5 22C10.3579 22 7 18.6421 7 14.5C7 10.3579 10.3579 7 14.5 7Z" fill="white"/>
<path d="M21.7045 14.5C21.7045 10.6591 18.5909 7.54545 14.75 7.54545C10.9091 7.54545 7.79545 10.6591 7.79545 14.5C7.79545 18.3409 10.9091 21.4545 14.75 21.4545C16.1123 21.4545 17.3808 21.0617 18.4537 20.385L18.5492 20.3337C18.6483 20.2892 18.7558 20.2653 18.8652 20.2653H20.5153V18.6142C20.5153 18.4685 20.5573 18.3259 20.635 18.2027C21.3115 17.1298 21.7045 15.8618 21.7045 14.5ZM23.25 14.5C23.25 16.0821 22.8138 17.5622 22.0607 18.8305V21.038C22.0607 21.4648 21.7148 21.8107 21.288 21.8107H19.0825C17.8137 22.5644 16.3325 23 14.75 23C10.0556 23 6.25 19.1944 6.25 14.5C6.25 9.80558 10.0556 6 14.75 6C19.4444 6 23.25 9.80558 23.25 14.5Z" fill="#3F4247"/>
<path d="M16.2305 15.4805C16.6447 15.4805 16.9805 15.8163 16.9805 16.2305C16.9804 16.6446 16.6446 16.9805 16.2305 16.9805H11C10.5858 16.9805 10.2501 16.6446 10.25 16.2305C10.25 15.8163 10.5858 15.4805 11 15.4805H16.2305ZM18.5381 12.5957C18.9523 12.5957 19.2881 12.9315 19.2881 13.3457C19.2881 13.7599 18.9523 14.0957 18.5381 14.0957H11C10.5858 14.0957 10.25 13.7599 10.25 13.3457C10.25 12.9315 10.5858 12.5957 11 12.5957H18.5381Z" fill="#00A6FF"/>
</svg>
