<svg width="24" height="24" viewBox="0 0 24 24" fill="none" xmlns="http://www.w3.org/2000/svg">
<path fill-rule="evenodd" clip-rule="evenodd" d="M22.2471 19.3955C22.2469 21.5079 20.5277 23.2148 18.4141 23.2148H6.08301C3.96931 23.2148 2.25016 21.508 2.25 19.3955V10.9355H22.2471V19.3955ZM16.3584 1.25C16.7726 1.25 17.1084 1.58579 17.1084 2V3.29688H18.4141C20.5278 3.29693 22.247 5.00368 22.2471 7.11621V9.43555H2.25V7.11621C2.25004 5.00365 3.96923 3.29688 6.08301 3.29688H7.3877V2C7.3877 1.58588 7.72362 1.25016 8.1377 1.25C8.55191 1.25 8.8877 1.58579 8.8877 2V3.29688H15.6084V2C15.6084 1.58591 15.9444 1.2502 16.3584 1.25Z" fill="#2B2E32"/>
</svg>
