<svg width="24" height="24" viewBox="0 0 24 24" fill="none" xmlns="http://www.w3.org/2000/svg">
<path d="M22 20.25C22.4142 20.25 22.75 20.5858 22.75 21C22.75 21.4142 22.4142 21.75 22 21.75H2C1.58579 21.75 1.25 21.4142 1.25 21C1.25 20.5858 1.58579 20.25 2 20.25H22Z" fill="#1A1D20"/>
<path fill-rule="evenodd" clip-rule="evenodd" d="M5 10.25C5.9665 10.25 6.75 11.0335 6.75 12V16C6.75 16.9665 5.9665 17.75 5 17.75H3C2.0335 17.75 1.25 16.9665 1.25 16V12C1.25 11.0335 2.0335 10.25 3 10.25H5ZM3 11.75C2.86193 11.75 2.75 11.8619 2.75 12V16C2.75 16.1381 2.86193 16.25 3 16.25H5C5.13807 16.25 5.25 16.1381 5.25 16V12C5.25 11.8619 5.13807 11.75 5 11.75H3Z" fill="#1A1D20"/>
<path fill-rule="evenodd" clip-rule="evenodd" d="M13 6.25C13.9665 6.25 14.75 7.0335 14.75 8V16C14.75 16.9665 13.9665 17.75 13 17.75H11C10.0335 17.75 9.25 16.9665 9.25 16V8C9.25 7.0335 10.0335 6.25 11 6.25H13ZM11 7.75C10.8619 7.75 10.75 7.86193 10.75 8V16C10.75 16.1381 10.8619 16.25 11 16.25H13C13.1381 16.25 13.25 16.1381 13.25 16V8C13.25 7.86193 13.1381 7.75 13 7.75H11Z" fill="#1A1D20"/>
<path fill-rule="evenodd" clip-rule="evenodd" d="M21 2.25C21.9665 2.25 22.75 3.0335 22.75 4V16C22.75 16.9665 21.9665 17.75 21 17.75H19C18.0335 17.75 17.25 16.9665 17.25 16V4C17.25 3.0335 18.0335 2.25 19 2.25H21ZM19 3.75C18.8619 3.75 18.75 3.86193 18.75 4V16C18.75 16.1381 18.8619 16.25 19 16.25H21C21.1381 16.25 21.25 16.1381 21.25 16V4C21.25 3.86193 21.1381 3.75 21 3.75H19Z" fill="#1A1D20"/>
</svg>
