<svg width="24" height="24" viewBox="0 0 24 24" fill="none" xmlns="http://www.w3.org/2000/svg">
<path d="M20.7115 10.7209H3.78846V19.1628C3.78846 20.4343 4.82165 21.4651 6.09615 21.4651H18.4038C19.6784 21.4651 20.7115 20.4343 20.7115 19.1628V10.7209ZM15.8087 12.4807C16.1091 12.1809 16.596 12.1809 16.8964 12.4807C17.1968 12.7804 17.1968 13.2662 16.8964 13.5659L11.618 18.832C11.1173 19.3315 10.3058 19.3315 9.80509 18.832L7.60357 16.6356C7.30316 16.3359 7.30316 15.8501 7.60357 15.5504C7.90397 15.2507 8.3909 15.2507 8.69131 15.5504L10.7115 17.566L15.8087 12.4807ZM15.5833 5.86047V4.5814H8.91667V5.86047C8.91667 6.28431 8.57227 6.62791 8.14744 6.62791C7.7226 6.62791 7.37821 6.28431 7.37821 5.86047V4.5814H6.09615C4.82165 4.5814 3.78846 5.61218 3.78846 6.88372V9.18605H20.7115V6.88372C20.7115 5.61218 19.6783 4.5814 18.4038 4.5814H17.1218V5.86047C17.1218 6.28431 16.7774 6.62791 16.3526 6.62791C15.9277 6.62791 15.5833 6.28431 15.5833 5.86047ZM22.25 19.1628C22.25 21.282 20.528 23 18.4038 23H6.09615C3.97198 23 2.25 21.282 2.25 19.1628V6.88372C2.25 4.76449 3.97198 3.04651 6.09615 3.04651H7.37821V1.76744C7.37821 1.3436 7.7226 1 8.14744 1C8.57227 1 8.91667 1.3436 8.91667 1.76744V3.04651H15.5833V1.76744C15.5833 1.3436 15.9277 1 16.3526 1C16.7774 1 17.1218 1.3436 17.1218 1.76744V3.04651H18.4038C20.528 3.04651 22.25 4.76449 22.25 6.88372V19.1628Z" fill="#7C8085"/>
</svg>
