<svg width="24" height="24" viewBox="0 0 24 24" fill="none" xmlns="http://www.w3.org/2000/svg">
<path d="M7.25 16C7.25 14.7574 6.24264 13.75 5 13.75C3.75736 13.75 2.75 14.7574 2.75 16V18.25H7.25V16ZM21.25 16C21.25 14.7574 20.2426 13.75 19 13.75C17.7574 13.75 16.75 14.7574 16.75 16V18.25H21.25V16ZM6.25 11C6.25 10.3096 5.69036 9.75 5 9.75C4.30964 9.75 3.75 10.3096 3.75 11C3.75 11.6904 4.30964 12.25 5 12.25C5.69036 12.25 6.25 11.6904 6.25 11ZM20.25 11C20.25 10.3096 19.6904 9.75 19 9.75C18.3096 9.75 17.75 10.3096 17.75 11C17.75 11.6904 18.3096 12.25 19 12.25C19.6904 12.25 20.25 11.6904 20.25 11ZM7.75 11C7.75 11.7129 7.47617 12.36 7.03125 12.8486C8.06504 13.5164 8.75 14.6778 8.75 16V19C8.75 19.4142 8.41421 19.75 8 19.75H2C1.58579 19.75 1.25 19.4142 1.25 19V16C1.25 14.6781 1.93437 13.5164 2.96777 12.8486C2.52312 12.3601 2.25 11.7126 2.25 11C2.25 9.48122 3.48122 8.25 5 8.25C6.51878 8.25 7.75 9.48122 7.75 11ZM21.75 11C21.75 11.7129 21.4762 12.36 21.0312 12.8486C22.065 13.5164 22.75 14.6778 22.75 16V19C22.75 19.4142 22.4142 19.75 22 19.75H16C15.5858 19.75 15.25 19.4142 15.25 19V16C15.25 14.6781 15.9344 13.5164 16.9678 12.8486C16.5231 12.3601 16.25 11.7126 16.25 11C16.25 9.48122 17.4812 8.25 19 8.25C20.5188 8.25 21.75 9.48122 21.75 11Z" fill="#1A1D20"/>
<path d="M6 17C6 13.6863 8.68629 11 12 11C15.3137 11 18 13.6863 18 17V21H6V17Z" fill="white"/>
<path d="M16 7C16 9.20914 14.2091 11 12 11C9.79086 11 8 9.20914 8 7C8 4.79086 9.79086 3 12 3C14.2091 3 16 4.79086 16 7Z" fill="white"/>
<path d="M17.25 17C17.25 14.1005 14.8995 11.75 12 11.75C9.10051 11.75 6.75 14.1005 6.75 17V20.25H17.25V17ZM15.25 7C15.25 5.20507 13.7949 3.75 12 3.75C10.2051 3.75 8.75 5.20507 8.75 7C8.75 8.79493 10.2051 10.25 12 10.25C13.7949 10.25 15.25 8.79493 15.25 7ZM16.75 7C16.75 8.58467 15.973 9.98669 14.7803 10.8496C17.1208 11.9093 18.75 14.2636 18.75 17V21C18.75 21.4142 18.4142 21.75 18 21.75H6C5.58579 21.75 5.25 21.4142 5.25 21V17C5.25 14.2639 6.87862 11.9095 9.21875 10.8496C8.02639 9.98666 7.25 8.58438 7.25 7C7.25 4.37665 9.37665 2.25 12 2.25C14.6234 2.25 16.75 4.37665 16.75 7Z" fill="#1A1D20"/>
</svg>
