<svg width="24" height="24" viewBox="0 0 24 24" fill="none" xmlns="http://www.w3.org/2000/svg">
<path d="M20.25 10.75H3.75V19C3.75 20.2426 4.75736 21.25 6 21.25H18C19.2426 21.25 20.25 20.2426 20.25 19V10.75ZM15.4697 12.4697C15.7626 12.1768 16.2374 12.1768 16.5303 12.4697C16.8232 12.7626 16.8232 13.2374 16.5303 13.5303L11.3838 18.6768C10.8956 19.1649 10.1044 19.1649 9.61621 18.6768L7.46973 16.5303C7.17683 16.2374 7.17683 15.7626 7.46973 15.4697C7.76262 15.1768 8.23738 15.1768 8.53027 15.4697L10.5 17.4395L15.4697 12.4697ZM15.25 6V4.75H8.75V6C8.75 6.41421 8.41421 6.75 8 6.75C7.58579 6.75 7.25 6.41421 7.25 6V4.75H6C4.75736 4.75 3.75 5.75736 3.75 7V9.25H20.25V7C20.25 5.75736 19.2426 4.75 18 4.75H16.75V6C16.75 6.41421 16.4142 6.75 16 6.75C15.5858 6.75 15.25 6.41421 15.25 6ZM21.75 19C21.75 21.0711 20.0711 22.75 18 22.75H6C3.92893 22.75 2.25 21.0711 2.25 19V7C2.25 4.92893 3.92893 3.25 6 3.25H7.25V2C7.25 1.58579 7.58579 1.25 8 1.25C8.41421 1.25 8.75 1.58579 8.75 2V3.25H15.25V2C15.25 1.58579 15.5858 1.25 16 1.25C16.4142 1.25 16.75 1.58579 16.75 2V3.25H18C20.0711 3.25 21.75 4.92893 21.75 7V19Z" fill="#1A1D20"/>
</svg>
