<svg width="24" height="24" viewBox="0 0 24 24" fill="none" xmlns="http://www.w3.org/2000/svg">
<path d="M11.1418 3.59992C11.8706 2.80003 13.1294 2.80003 13.8582 3.59992C14.3416 4.13055 15.0898 4.33103 15.7738 4.11322C16.8049 3.78488 17.8951 4.41427 18.1262 5.47139C18.2796 6.17266 18.8273 6.72038 19.5286 6.87375C20.5857 7.10495 21.2151 8.19508 20.8868 9.22617C20.669 9.91017 20.8694 10.6584 21.4001 11.1418C22.2 11.8706 22.2 13.1294 21.4001 13.8582C20.8694 14.3416 20.669 15.0898 20.8868 15.7738C21.2151 16.8049 20.5857 17.8951 19.5286 18.1262C18.8273 18.2796 18.2796 18.8273 18.1262 19.5286C17.8951 20.5857 16.8049 21.2151 15.7738 20.8868C15.0898 20.669 14.3416 20.8694 13.8582 21.4001C13.1294 22.2 11.8706 22.2 11.1418 21.4001C10.6584 20.8694 9.91017 20.669 9.22617 20.8868C8.19508 21.2151 7.10495 20.5857 6.87375 19.5286C6.72038 18.8273 6.17266 18.2796 5.47139 18.1262C4.41427 17.8951 3.78488 16.8049 4.11322 15.7738C4.33103 15.0898 4.13055 14.3416 3.59992 13.8582C2.80003 13.1294 2.80003 11.8706 3.59992 11.1418C4.13055 10.6584 4.33103 9.91017 4.11322 9.22617C3.78488 8.19508 4.41427 7.10495 5.47139 6.87375C6.17266 6.72038 6.72038 6.17266 6.87375 5.47139C7.10495 4.41427 8.19508 3.78488 9.22617 4.11322C9.91017 4.33103 10.6584 4.13055 11.1418 3.59992Z" fill="#00A6FF"/>
<path d="M16.4294 8.33118C16.7116 7.97188 17.2549 7.89266 17.6427 8.15406C18.0303 8.41557 18.1158 8.91918 17.8338 9.2786L12.1043 16.5803C11.698 17.0981 10.8835 17.1444 10.4116 16.6767L7.23427 13.5284C6.90674 13.2037 6.92479 12.6938 7.27497 12.3902C7.62529 12.0866 8.17538 12.1043 8.50295 12.429L11.1534 15.0554L16.4294 8.33118Z" fill="white"/>
</svg>
