<svg width="24" height="24" viewBox="0 0 24 24" fill="none" xmlns="http://www.w3.org/2000/svg">
<path d="M7.38953 16.1026C7.38953 14.8281 6.35875 13.7949 5.08721 13.7949C3.81567 13.7949 2.78488 14.8281 2.78488 16.1026V18.4103H7.38953V16.1026ZM21.7151 16.1026C21.7151 14.8281 20.6843 13.7949 19.4128 13.7949C18.1413 13.7949 17.1105 14.8281 17.1105 16.1026V18.4103H21.7151V16.1026ZM6.36628 10.9744C6.36628 10.2663 5.79362 9.69231 5.08721 9.69231C4.3808 9.69231 3.80814 10.2663 3.80814 10.9744C3.80814 11.6824 4.3808 12.2564 5.08721 12.2564C5.79362 12.2564 6.36628 11.6824 6.36628 10.9744ZM20.6919 10.9744C20.6919 10.2663 20.1192 9.69231 19.4128 9.69231C18.7064 9.69231 18.1337 10.2663 18.1337 10.9744C18.1337 11.6824 18.7064 12.2564 19.4128 12.2564C20.1192 12.2564 20.6919 11.6824 20.6919 10.9744ZM7.90116 10.9744C7.90116 11.7055 7.62096 12.3693 7.1657 12.8704C8.22353 13.5552 8.92442 14.7464 8.92442 16.1026V19.1795C8.92442 19.6043 8.58082 19.9487 8.15698 19.9487H2.01744C1.5936 19.9487 1.25 19.6043 1.25 19.1795V16.1026C1.25 14.7467 1.95028 13.5553 3.00772 12.8704C2.55272 12.3693 2.27326 11.7053 2.27326 10.9744C2.27326 9.41663 3.53311 8.15385 5.08721 8.15385C6.64131 8.15385 7.90116 9.41663 7.90116 10.9744ZM22.2267 10.9744C22.2267 11.7055 21.9465 12.3693 21.4913 12.8704C22.5491 13.5552 23.25 14.7464 23.25 16.1026V19.1795C23.25 19.6043 22.9064 19.9487 22.4826 19.9487H16.343C15.9192 19.9487 15.5756 19.6043 15.5756 19.1795V16.1026C15.5756 14.7467 16.2759 13.5553 17.3333 12.8704C16.8783 12.3693 16.5988 11.7053 16.5988 10.9744C16.5988 9.41663 17.8587 8.15385 19.4128 8.15385C20.9669 8.15385 22.2267 9.41663 22.2267 10.9744Z" fill="#7C8085"/>
<path d="M6.11047 17.1282C6.11047 13.7295 8.85923 10.9744 12.25 10.9744C15.6408 10.9744 18.3895 13.7295 18.3895 17.1282V21.2308H6.11047V17.1282Z" fill="white"/>
<path d="M16.343 6.8718C16.343 9.13758 14.5105 10.9744 12.25 10.9744C9.98949 10.9744 8.15698 9.13758 8.15698 6.8718C8.15698 4.60601 9.98949 2.76923 12.25 2.76923C14.5105 2.76923 16.343 4.60601 16.343 6.8718Z" fill="white"/>
<path d="M17.6221 17.1282C17.6221 14.1544 15.2169 11.7436 12.25 11.7436C9.28308 11.7436 6.87791 14.1544 6.87791 17.1282V20.4615H17.6221V17.1282ZM15.5756 6.8718C15.5756 5.03085 14.0867 3.53846 12.25 3.53846C10.4133 3.53846 8.92442 5.03085 8.92442 6.8718C8.92442 8.71274 10.4133 10.2051 12.25 10.2051C14.0867 10.2051 15.5756 8.71274 15.5756 6.8718ZM17.1105 6.8718C17.1105 8.4971 16.3154 9.93507 15.0949 10.8201C17.4899 11.907 19.157 14.3216 19.157 17.1282V21.2308C19.157 21.6556 18.8134 22 18.3895 22H6.11047C5.68662 22 5.34302 21.6556 5.34302 21.2308V17.1282C5.34302 14.3219 7.00952 11.9072 9.40407 10.8201C8.18398 9.93503 7.38953 8.4968 7.38953 6.8718C7.38953 4.18118 9.56564 2 12.25 2C14.9344 2 17.1105 4.18118 17.1105 6.8718Z" fill="#7C8085"/>
</svg>
