<svg width="24" height="24" viewBox="0 0 24 24" fill="none" xmlns="http://www.w3.org/2000/svg">
<path d="M20.4615 10.7209H3.53846V19.1628C3.53846 20.4343 4.57165 21.4651 5.84615 21.4651H18.1538C19.4283 21.4651 20.4615 20.4343 20.4615 19.1628V10.7209ZM15.3333 5.86047V4.5814H8.66667V5.86047C8.66667 6.28431 8.32227 6.62791 7.89744 6.62791C7.4726 6.62791 7.1282 6.28431 7.1282 5.86047V4.5814H5.84615C4.57165 4.5814 3.53846 5.61218 3.53846 6.88372V9.18605H20.4615V6.88372C20.4615 5.61218 19.4283 4.5814 18.1538 4.5814H16.8718V5.86047C16.8718 6.28431 16.5274 6.62791 16.1026 6.62791C15.6777 6.62791 15.3333 6.28431 15.3333 5.86047ZM22 19.1628C22 21.282 20.278 23 18.1538 23H5.84615C3.72198 23 2 21.282 2 19.1628V6.88372C2 4.76449 3.72198 3.04651 5.84615 3.04651H7.1282V1.76744C7.1282 1.3436 7.4726 1 7.89744 1C8.32227 1 8.66667 1.3436 8.66667 1.76744V3.04651H15.3333V1.76744C15.3333 1.3436 15.6777 1 16.1026 1C16.5274 1 16.8718 1.3436 16.8718 1.76744V3.04651H18.1538C20.278 3.04651 22 4.76449 22 6.88372V19.1628Z" fill="#585C61"/>
</svg>
