<svg width="24" height="24" viewBox="0 0 24 24" fill="none" xmlns="http://www.w3.org/2000/svg">
<path d="M8.5 2C4.91015 2 2 4.91015 2 8.5C2 9.77265 2.36789 10.9585 3 11.9609V14H5.03809C6.04065 14.6324 7.22706 15 8.5 15C12.0899 15 15 12.0899 15 8.5C15 4.91015 12.0899 2 8.5 2Z" fill="white"/>
<path d="M2.75 8.5C2.75 5.32436 5.32436 2.75 8.5 2.75C11.6756 2.75 14.25 5.32436 14.25 8.5C14.25 11.6756 11.6756 14.25 8.5 14.25C7.37361 14.25 6.3255 13.9247 5.43848 13.3652C5.3187 13.2897 5.1797 13.25 5.03809 13.25H3.75V11.9609C3.75 11.8194 3.71029 11.6803 3.63477 11.5605C3.07542 10.6735 2.75 9.62588 2.75 8.5ZM1.25 8.5C1.25 9.83948 1.61643 11.0935 2.25 12.1699V14C2.25 14.4142 2.58579 14.75 3 14.75H4.82812C5.90504 15.3841 7.16012 15.75 8.5 15.75C12.5041 15.75 15.75 12.5041 15.75 8.5C15.75 4.49594 12.5041 1.25 8.5 1.25C4.49594 1.25 1.25 4.49594 1.25 8.5Z" fill="#3F4247"/>
<path d="M14.5 7C18.6421 7 22 10.3579 22 14.5C22 15.9684 21.5755 17.3368 20.8462 18.4934V20.8462H18.4945C17.3377 21.5758 15.9688 22 14.5 22C10.3579 22 7 18.6421 7 14.5C7 10.3579 10.3579 7 14.5 7Z" fill="white"/>
<path d="M21.25 14.5C21.25 10.7721 18.2279 7.75 14.5 7.75C10.7721 7.75 7.75 10.7721 7.75 14.5C7.75 18.2279 10.7721 21.25 14.5 21.25C15.8222 21.25 17.0535 20.8687 18.0947 20.2119L18.1875 20.1621C18.2836 20.119 18.388 20.0958 18.4941 20.0957H20.0957V18.4932C20.0957 18.3517 20.1365 18.2134 20.2119 18.0938C20.8685 17.0524 21.25 15.8217 21.25 14.5ZM22.75 14.5C22.75 16.0356 22.3266 17.4722 21.5957 18.7031V20.8457C21.5957 21.2599 21.2599 21.5957 20.8457 21.5957H18.7051C17.4736 22.3272 16.036 22.75 14.5 22.75C9.94365 22.75 6.25 19.0563 6.25 14.5C6.25 9.94365 9.94365 6.25 14.5 6.25C19.0563 6.25 22.75 9.94365 22.75 14.5Z" fill="#3F4247"/>
<path d="M16.2305 15.4805C16.6447 15.4805 16.9805 15.8163 16.9805 16.2305C16.9804 16.6446 16.6446 16.9805 16.2305 16.9805H11C10.5858 16.9805 10.2501 16.6446 10.25 16.2305C10.25 15.8163 10.5858 15.4805 11 15.4805H16.2305ZM18.5381 12.5957C18.9523 12.5957 19.2881 12.9315 19.2881 13.3457C19.2881 13.7599 18.9523 14.0957 18.5381 14.0957H11C10.5858 14.0957 10.25 13.7599 10.25 13.3457C10.25 12.9315 10.5858 12.5957 11 12.5957H18.5381Z" fill="#00A6FF"/>
</svg>
