<svg width="24" height="24" viewBox="0 0 24 24" fill="none" xmlns="http://www.w3.org/2000/svg">
<path d="M10.6931 3.43478C11.3944 2.66497 12.6059 2.66497 13.3072 3.43478C13.7725 3.94546 14.4926 4.1384 15.1509 3.92878C16.1432 3.61279 17.1923 4.2185 17.4148 5.23587C17.5624 5.91076 18.0895 6.43789 18.7644 6.58549C19.7818 6.80799 20.3875 7.85712 20.0715 8.84944C19.8619 9.50771 20.0548 10.2278 20.5655 10.6931C21.3353 11.3944 21.3353 12.6059 20.5655 13.3072C20.0548 13.7725 19.8619 14.4926 20.0715 15.1509C20.3875 16.1432 19.7818 17.1923 18.7644 17.4148C18.0895 17.5624 17.5624 18.0895 17.4148 18.7644C17.1923 19.7818 16.1432 20.3875 15.1509 20.0715C14.4926 19.8619 13.7725 20.0548 13.3072 20.5655C12.6059 21.3353 11.3944 21.3353 10.6931 20.5655C10.2278 20.0548 9.50771 19.8619 8.84944 20.0715C7.85712 20.3875 6.80799 19.7818 6.58549 18.7644C6.43789 18.0895 5.91076 17.5624 5.23587 17.4148C4.2185 17.1923 3.61279 16.1432 3.92878 15.1509C4.1384 14.4926 3.94546 13.7725 3.43478 13.3072C2.66497 12.6059 2.66497 11.3944 3.43478 10.6931C3.94546 10.2278 4.1384 9.50771 3.92878 8.84944C3.61279 7.85712 4.2185 6.80799 5.23587 6.58549C5.91076 6.43789 6.43789 5.91076 6.58549 5.23587C6.80799 4.2185 7.85712 3.61279 8.84944 3.92878C9.50771 4.1384 10.2278 3.94546 10.6931 3.43478Z" fill="#00A6FF"/>
<path d="M16.0364 8.55859C16.2993 8.2238 16.8056 8.14998 17.1669 8.39355C17.5281 8.63723 17.6078 9.10649 17.345 9.44141L12.0063 16.2451C11.6276 16.7277 10.8687 16.7708 10.429 16.335L7.46829 13.4014C7.1631 13.0989 7.17992 12.6237 7.50622 12.3408C7.83265 12.0579 8.34523 12.0744 8.65046 12.377L11.1202 14.8242L16.0364 8.55859Z" fill="white"/>
</svg>
