<svg width="24" height="24" viewBox="0 0 24 24" fill="none" xmlns="http://www.w3.org/2000/svg">
<path d="M16 16C16 14.3431 17.3431 13 19 13C20.6569 13 22 14.3431 22 16V19H16V16Z" fill="#1A1D20"/>
<path d="M2 16C2 14.3431 3.34315 13 5 13C6.65685 13 8 14.3431 8 16V19H2V16Z" fill="#1A1D20"/>
<path d="M7 11C7 12.1046 6.10457 13 5 13C3.89543 13 3 12.1046 3 11C3 9.89543 3.89543 9 5 9C6.10457 9 7 9.89543 7 11Z" fill="#1A1D20"/>
<path d="M21 11C21 12.1046 20.1046 13 19 13C17.8954 13 17 12.1046 17 11C17 9.89543 17.8954 9 19 9C20.1046 9 21 9.89543 21 11Z" fill="#1A1D20"/>
<path d="M5 13C6.65685 13 8 14.3431 8 16V19H2V16C2 14.3431 3.34315 13 5 13ZM5 13C6.10457 13 7 12.1046 7 11C7 9.89543 6.10457 9 5 9C3.89543 9 3 9.89543 3 11C3 12.1046 3.89543 13 5 13ZM19 13C20.1046 13 21 12.1046 21 11C21 9.89543 20.1046 9 19 9C17.8954 9 17 9.89543 17 11C17 12.1046 17.8954 13 19 13ZM19 13C20.6569 13 22 14.3431 22 16V19H16V16C16 14.3431 17.3431 13 19 13Z" stroke="#1A1D20" stroke-width="1.5" stroke-linejoin="round"/>
<path d="M12 10.25C15.7279 10.25 18.75 13.2721 18.75 17V21C18.75 21.4142 18.4142 21.75 18 21.75H6C5.58579 21.75 5.25 21.4142 5.25 21V17C5.25 13.2721 8.27208 10.25 12 10.25Z" fill="#1A1D20" stroke="white" stroke-width="1.5" stroke-linejoin="round"/>
<path d="M16 8C16 10.2091 14.2091 12 12 12C9.79086 12 8 10.2091 8 8C8 5.79086 9.79086 4 12 4C14.2091 4 16 5.79086 16 8Z" fill="#1A1D20"/>
</svg>
