<svg width="24" height="24" viewBox="0 0 24 24" fill="none" xmlns="http://www.w3.org/2000/svg">
<path d="M17.3663 14.6757C18.9387 14.6757 20.2554 15.7136 20.6019 17.1081H22.4826C22.9064 17.1081 23.25 17.4348 23.25 17.8378C23.25 18.2409 22.9064 18.5676 22.4826 18.5676H20.6019C20.2554 19.9621 18.9387 21 17.3663 21C15.7938 21 14.4772 19.9621 14.1306 18.5676H2.01744C1.5936 18.5676 1.25 18.2409 1.25 17.8378C1.25 17.4348 1.5936 17.1081 2.01744 17.1081H14.1306C14.4772 15.7136 15.7938 14.6757 17.3663 14.6757ZM17.3663 16.1351C16.3773 16.1351 15.5756 16.8975 15.5756 17.8378C15.5756 18.7782 16.3773 19.5405 17.3663 19.5405C18.3553 19.5405 19.157 18.7782 19.157 17.8378C19.157 16.8975 18.3553 16.1351 17.3663 16.1351ZM7.13372 8.83784C8.70618 8.83784 10.0228 9.87576 10.3694 11.2703H22.4826C22.9064 11.2703 23.25 11.597 23.25 12C23.25 12.403 22.9064 12.7297 22.4826 12.7297H10.3694C10.0228 14.1242 8.70618 15.1622 7.13372 15.1622C5.56127 15.1622 4.24461 14.1242 3.89808 12.7297H2.01744C1.5936 12.7297 1.25 12.403 1.25 12C1.25 11.597 1.5936 11.2703 2.01744 11.2703H3.89808C4.24461 9.87576 5.56127 8.83784 7.13372 8.83784ZM7.13372 10.2973C6.14475 10.2973 5.34302 11.0596 5.34302 12C5.34302 12.9404 6.14475 13.7027 7.13372 13.7027C8.1227 13.7027 8.92442 12.9404 8.92442 12C8.92442 11.0596 8.1227 10.2973 7.13372 10.2973ZM17.3663 3C18.9387 3 20.2554 4.03792 20.6019 5.43243H22.4826C22.9064 5.43243 23.25 5.75914 23.25 6.16216C23.25 6.56518 22.9064 6.89189 22.4826 6.89189H20.6019C20.2554 8.2864 18.9387 9.32432 17.3663 9.32432C15.8354 9.32432 14.5467 8.34098 14.1596 7.00211L2.01644 6.98216C1.5926 6.98141 1.24922 6.65355 1.25 6.25053C1.25086 5.8477 1.59483 5.52217 2.01844 5.5227L14.1047 5.54265C14.4075 4.09287 15.7526 3 17.3663 3ZM17.3663 4.45946C16.3773 4.45946 15.5756 5.22179 15.5756 6.16216C15.5756 6.18864 15.5763 6.21493 15.5776 6.24103C15.6208 7.14434 16.4052 7.86486 17.3663 7.86486C18.3553 7.86486 19.157 7.10254 19.157 6.16216C19.157 5.22179 18.3553 4.45946 17.3663 4.45946Z" fill="#1A1D20"/>
</svg>
