<svg width="24" height="24" viewBox="0 0 24 24" fill="none" xmlns="http://www.w3.org/2000/svg">
<path d="M17 14.75C18.5367 14.75 19.8235 15.8168 20.1621 17.25H22C22.4142 17.25 22.75 17.5858 22.75 18C22.75 18.4142 22.4142 18.75 22 18.75H20.1621C19.8235 20.1832 18.5367 21.25 17 21.25C15.4633 21.25 14.1765 20.1832 13.8379 18.75H2C1.58579 18.75 1.25 18.4142 1.25 18C1.25 17.5858 1.58579 17.25 2 17.25H13.8379C14.1765 15.8168 15.4633 14.75 17 14.75ZM17 16.25C16.0335 16.25 15.25 17.0335 15.25 18C15.25 18.9665 16.0335 19.75 17 19.75C17.9665 19.75 18.75 18.9665 18.75 18C18.75 17.0335 17.9665 16.25 17 16.25ZM7 8.75C8.53672 8.75 9.82345 9.81675 10.1621 11.25H22C22.4142 11.25 22.75 11.5858 22.75 12C22.75 12.4142 22.4142 12.75 22 12.75H10.1621C9.82345 14.1832 8.53672 15.25 7 15.25C5.46328 15.25 4.17655 14.1832 3.83789 12.75H2C1.58579 12.75 1.25 12.4142 1.25 12C1.25 11.5858 1.58579 11.25 2 11.25H3.83789C4.17655 9.81675 5.46328 8.75 7 8.75ZM7 10.25C6.0335 10.25 5.25 11.0335 5.25 12C5.25 12.9665 6.0335 13.75 7 13.75C7.9665 13.75 8.75 12.9665 8.75 12C8.75 11.0335 7.9665 10.25 7 10.25ZM17 2.75C18.5367 2.75 19.8235 3.81675 20.1621 5.25H22C22.4142 5.25 22.75 5.58579 22.75 6C22.75 6.41421 22.4142 6.75 22 6.75H20.1621C19.8235 8.18325 18.5367 9.25 17 9.25C15.504 9.25 14.2445 8.23934 13.8662 6.86328L1.99902 6.84277C1.58481 6.84201 1.24924 6.50503 1.25 6.09082C1.25084 5.67681 1.587 5.34223 2.00098 5.34277L13.8125 5.36328C14.1085 3.87323 15.423 2.75 17 2.75ZM17 4.25C16.0335 4.25 15.25 5.0335 15.25 6C15.25 6.02721 15.2507 6.05423 15.252 6.08105C15.2941 7.00946 16.0608 7.75 17 7.75C17.9665 7.75 18.75 6.9665 18.75 6C18.75 5.0335 17.9665 4.25 17 4.25Z" fill="#1A1D20"/>
</svg>
