<svg width="24" height="24" viewBox="0 0 24 24" fill="none" xmlns="http://www.w3.org/2000/svg">
<path d="M20.0003 22.0001H15.0003V16.0001H9.00032V22.0001H4.00032V12.0001H2.00032L12.0003 2.00012L22.0003 12.0001H20.0003V22.0001Z" fill="#1A1D20"/>
<path d="M11.5267 1.41809C11.8213 1.17778 12.256 1.19524 12.5306 1.46984L22.5306 11.4698C22.7451 11.6843 22.8097 12.007 22.6937 12.2872C22.5776 12.5675 22.3037 12.7501 22.0003 12.7501H20.7503V22.0001C20.7503 22.4143 20.4145 22.7501 20.0003 22.7501H15.0003C14.5861 22.7501 14.2503 22.4143 14.2503 22.0001V16.7501H9.75032V22.0001C9.75032 22.4143 9.41453 22.7501 9.00032 22.7501H4.00032C3.58611 22.7501 3.25032 22.4143 3.25032 22.0001V12.7501H2.00032C1.69697 12.7501 1.42305 12.5675 1.30696 12.2872C1.19092 12.007 1.25557 11.6843 1.47005 11.4698L11.47 1.46984L11.5267 1.41809ZM3.81087 11.2501H4.00032C4.41453 11.2501 4.75032 11.5859 4.75032 12.0001V21.2501H8.25032V16.0001C8.25032 15.5859 8.5861 15.2501 9.00032 15.2501H15.0003C15.4145 15.2501 15.7503 15.5859 15.7503 16.0001V21.2501H19.2503V12.0001C19.2503 11.5859 19.5861 11.2501 20.0003 11.2501H20.1898L12.0003 3.06066L3.81087 11.2501Z" fill="#1A1D20"/>
</svg>
