<svg width="24" height="24" viewBox="0 0 24 24" fill="none" xmlns="http://www.w3.org/2000/svg">
<path d="M20.4358 22.2326H15.3197V16.0931H9.18032V22.2326H4.0642V12.0001H2.01775L12.25 1.76756L22.4823 12.0001H20.4358V22.2326Z" fill="#2B2E32"/>
<path d="M11.7654 1.17199C12.0668 0.926098 12.5116 0.943967 12.7926 1.22496L23.0248 11.4575C23.2443 11.6769 23.3105 12.0071 23.1917 12.2938C23.0729 12.5806 22.7926 12.7675 22.4823 12.7675H21.2032V22.2326C21.2032 22.6564 20.8596 23 20.4358 23H15.3197C14.8958 23 14.5523 22.6564 14.5523 22.2326V16.8605H9.94774V22.2326C9.94774 22.6564 9.60416 23 9.18032 23H4.0642C3.64036 23 3.29678 22.6564 3.29678 22.2326V12.7675H2.01775C1.70735 12.7675 1.42706 12.5806 1.30828 12.2938C1.18954 12.0071 1.2557 11.6769 1.47516 11.4575L11.7074 1.22496L11.7654 1.17199ZM3.87034 11.2326H4.0642C4.48803 11.2326 4.83162 11.5762 4.83162 12.0001V21.4651H8.4129V16.0931C8.4129 15.6692 8.75649 15.3256 9.18032 15.3256H15.3197C15.7435 15.3256 16.0871 15.6692 16.0871 16.0931V21.4651H19.6684V12.0001C19.6684 11.5762 20.012 11.2326 20.4358 11.2326H20.6297L12.25 2.85276L3.87034 11.2326Z" fill="#2B2E32"/>
</svg>
