<svg width="24" height="24" viewBox="0 0 24 24" fill="none" xmlns="http://www.w3.org/2000/svg">
<path d="M20.1201 16.875C18.9844 17.8167 19.1203 19.5979 20.3857 20.3564C20.6749 20.5298 20.8126 20.8752 20.7227 21.2002C20.6327 21.5251 20.3371 21.75 20 21.75H6.5C4.70507 21.75 3.25 20.2949 3.25 18.5C3.25 17.5335 4.0335 16.75 5 16.75H20.2705L20.1201 16.875Z" fill="#1A1D20"/>
<path d="M20 1.25C20.4142 1.25 20.75 1.58579 20.75 2V15.25H5C4.35552 15.25 3.75523 15.4382 3.25 15.7617V4C3.25 2.48122 4.48122 1.25 6 1.25H20Z" fill="#1A1D20"/>
<path d="M14.5 11.7998C14.4999 11.3999 14.188 11.0996 13.833 11.0996C13.6021 11.0997 13.3908 11.2279 13.2705 11.4268C13.2661 11.4352 13.2637 11.4449 13.2588 11.4531C13.2573 11.4557 13.2545 11.4574 13.2529 11.46C13.1997 11.5596 13.167 11.6742 13.167 11.7998C13.167 12.1997 13.4781 12.4998 13.833 12.5C14.188 12.5 14.5 12.1998 14.5 11.7998ZM9.83301 9C9.83301 8.60015 9.52186 8.29999 9.16699 8.2998C8.81199 8.2998 8.5 8.60003 8.5 9C8.5 9.39997 8.81199 9.7002 9.16699 9.7002C9.52186 9.70001 9.83301 9.39985 9.83301 9ZM14.5 6.2002C14.5 5.80022 14.188 5.5 13.833 5.5C13.4781 5.50018 13.167 5.80035 13.167 6.2002C13.1671 6.59995 13.4782 6.90021 13.833 6.90039C14.188 6.90039 14.4999 6.60007 14.5 6.2002ZM15.5 6.2002C15.4999 7.12562 14.7666 7.90039 13.833 7.90039C13.3967 7.90031 13.0052 7.72974 12.7109 7.45508L10.7871 8.61035C10.8161 8.73596 10.833 8.86619 10.833 9C10.833 9.13348 10.816 9.26334 10.7871 9.38867L12.7119 10.543C13.006 10.2691 13.3975 10.0997 13.833 10.0996C14.7666 10.0996 15.4999 10.8744 15.5 11.7998C15.5 12.7253 14.7667 13.5 13.833 13.5C12.8995 13.4998 12.167 12.7252 12.167 11.7998C12.167 11.6653 12.1836 11.5344 12.2129 11.4082L10.2881 10.2549C9.99384 10.5293 9.60305 10.7001 9.16699 10.7002C8.23333 10.7002 7.5 9.92551 7.5 9C7.5 8.07449 8.23333 7.2998 9.16699 7.2998C9.60281 7.29989 9.9939 7.46998 10.2881 7.74414L12.2119 6.58789C12.1832 6.46292 12.167 6.33327 12.167 6.2002C12.167 5.27479 12.8995 4.50018 13.833 4.5C14.7667 4.5 15.5 5.27468 15.5 6.2002Z" fill="white"/>
</svg>
