<svg width="24" height="24" viewBox="0 0 24 24" fill="none" xmlns="http://www.w3.org/2000/svg">
<path d="M4.5 4.75V17.1885L3.4832 19.4509C3.4635 19.4434 3.44402 19.435 3.4248 19.4258C3.16514 19.3008 3 19.0382 3 18.75V4.75C3 3.23122 4.23122 2 5.75 2H19.75C20.1642 2 20.5 2.33579 20.5 2.75V16.75C20.5 17.1642 20.1642 17.5 19.75 17.5H6.51367L6.25 16H19V3.5H5.75C5.05964 3.5 4.5 4.05964 4.5 4.75Z" fill="#1A1D20"/>
<path d="M19.75 16C20.0659 16 20.3477 16.1981 20.4551 16.4951C20.5623 16.7925 20.4719 17.1254 20.2285 17.3271L19.8701 17.625C18.7344 18.5667 18.8703 20.3479 20.1357 21.1064C20.4249 21.2798 20.5626 21.6252 20.4727 21.9502C20.3827 22.2751 20.0871 22.5 19.75 22.5H6.25C4.45507 22.5 3 21.0449 3 19.25C3 17.4551 4.45507 16 6.25 16H19.75ZM4.5 19.25C4.5 20.2165 5.2835 21 6.25 21H18.0312C17.4513 19.9201 17.4458 18.5898 18.0537 17.5H6.25C5.2835 17.5 4.5 18.2835 4.5 19.25Z" fill="#1A1D20"/>
<path d="M14.25 12.5498C14.2499 12.1499 13.938 11.8496 13.583 11.8496C13.3521 11.8497 13.1408 11.9779 13.0205 12.1768C13.0161 12.1852 13.0137 12.1949 13.0088 12.2031C13.0073 12.2057 13.0045 12.2074 13.0029 12.21C12.9497 12.3096 12.917 12.4242 12.917 12.5498C12.917 12.9497 13.2281 13.2498 13.583 13.25C13.938 13.25 14.25 12.9498 14.25 12.5498ZM9.58301 9.75C9.58301 9.35015 9.27186 9.04999 8.91699 9.0498C8.56199 9.0498 8.25 9.35003 8.25 9.75C8.25 10.15 8.56199 10.4502 8.91699 10.4502C9.27186 10.45 9.58301 10.1498 9.58301 9.75ZM14.25 6.9502C14.25 6.55022 13.938 6.25 13.583 6.25C13.2281 6.25018 12.917 6.55035 12.917 6.9502C12.9171 7.34995 13.2282 7.65021 13.583 7.65039C13.938 7.65039 14.2499 7.35007 14.25 6.9502ZM15.25 6.9502C15.2499 7.87562 14.5166 8.65039 13.583 8.65039C13.1467 8.65031 12.7552 8.47974 12.4609 8.20508L10.5371 9.36035C10.5661 9.48596 10.583 9.61619 10.583 9.75C10.583 9.88348 10.566 10.0133 10.5371 10.1387L12.4619 11.293C12.756 11.0191 13.1475 10.8497 13.583 10.8496C14.5166 10.8496 15.2499 11.6244 15.25 12.5498C15.25 13.4753 14.5167 14.25 13.583 14.25C12.6495 14.2498 11.917 13.4752 11.917 12.5498C11.917 12.4153 11.9336 12.2844 11.9629 12.1582L10.0381 11.0049C9.74384 11.2793 9.35305 11.4501 8.91699 11.4502C7.98333 11.4502 7.25 10.6755 7.25 9.75C7.25 8.82449 7.98333 8.0498 8.91699 8.0498C9.35281 8.04989 9.7439 8.21998 10.0381 8.49414L11.9619 7.33789C11.9332 7.21292 11.917 7.08327 11.917 6.9502C11.917 6.02479 12.6495 5.25018 13.583 5.25C14.5167 5.25 15.25 6.02468 15.25 6.9502Z" fill="#1A1D20"/>
</svg>
