<svg width="24" height="24" viewBox="0 0 24 24" fill="none" xmlns="http://www.w3.org/2000/svg">
<path d="M7.05371 14.1914H16.9463C17.9959 14.1917 18.895 14.9292 19.0996 15.9473L20.0518 20.6904C20.0888 20.8762 19.9465 21.0585 19.7441 21.0586H4.25586C4.05376 21.0586 3.91105 20.8767 3.94824 20.6904L4.90039 15.9473C5.10512 14.929 6.00416 14.1915 7.05371 14.1914ZM11.7842 2.94141C14.0409 2.94141 15.8643 4.76218 15.8643 7C15.8643 9.23782 14.0409 11.0586 11.7842 11.0586C9.52765 11.0584 7.70508 9.2377 7.70508 7C7.70508 4.7623 9.52765 2.94159 11.7842 2.94141Z" stroke="#7C8085" stroke-width="1.88281"/>
</svg>
