<svg width="24" height="24" viewBox="0 0 24 24" fill="none" xmlns="http://www.w3.org/2000/svg">
<path d="M20.9873 18.4516C21.4068 18.4516 21.7468 18.7982 21.7468 19.2258C21.7468 19.6534 21.4068 20 20.9873 20H2.75949C2.34004 20 2 19.6534 2 19.2258C2 18.7982 2.34004 18.4516 2.75949 18.4516H20.9873ZM21.2405 11.2258C21.66 11.2258 22 11.5724 22 12C22 12.4276 21.66 12.7742 21.2405 12.7742H2.75949C2.34004 12.7742 2 12.4276 2 12C2 11.5724 2.34004 11.2258 2.75949 11.2258H21.2405ZM20.9873 4C21.4068 4 21.7468 4.34662 21.7468 4.77419C21.7468 5.20177 21.4068 5.54839 20.9873 5.54839H2.75949C2.34004 5.54839 2 5.20177 2 4.77419C2 4.34662 2.34004 4 2.75949 4H20.9873Z" fill="white"/>
</svg>
