<svg width="24" height="24" viewBox="0 0 24 24" fill="none" xmlns="http://www.w3.org/2000/svg">
<path d="M7.05371 14.2383H16.9463C17.993 14.2386 18.8942 14.9775 19.0996 16.0039L20.0518 20.7666C20.0904 20.9606 19.942 21.1415 19.7441 21.1416H4.25586C4.05825 21.1416 3.90949 20.961 3.94824 20.7666L4.90039 16.0039C5.1059 14.9772 6.00706 14.2384 7.05371 14.2383ZM11.7842 2.94141C14.0371 2.94141 15.8641 4.76765 15.8643 7.02051C15.8643 9.27351 14.0372 11.1006 11.7842 11.1006C9.53134 11.1004 7.70508 9.27339 7.70508 7.02051C7.70525 4.76777 9.53144 2.9416 11.7842 2.94141Z" stroke="#1A1D20" stroke-width="1.88281"/>
</svg>
