<svg width="24" height="24" viewBox="0 0 24 24" fill="none" xmlns="http://www.w3.org/2000/svg">
<path d="M16.9461 13.25C18.4417 13.2502 19.7294 14.3017 20.0228 15.7622L20.9752 20.5046C21.1305 21.278 20.5364 21.9997 19.7445 22H4.2555C3.4634 22 2.86946 21.2781 3.02481 20.5046L3.97724 15.7622C4.27065 14.3016 5.55818 13.25 7.05397 13.25H16.9461Z" fill="#2B2E32"/>
<path d="M11.7845 2C14.5575 2 16.8054 4.23858 16.8054 7C16.8054 9.76142 14.5575 12 11.7845 12C9.01161 12 6.76371 9.76142 6.76371 7C6.76371 4.23858 9.01161 2 11.7845 2Z" fill="#2B2E32"/>
</svg>
