<svg width="24" height="24" viewBox="0 0 24 24" fill="none" xmlns="http://www.w3.org/2000/svg">
<path d="M16.9461 13.2968C18.4417 13.2971 19.7294 14.3529 20.0228 15.8195L20.9752 20.5817C21.1305 21.3582 20.5364 22.083 19.7445 22.0833H4.2555C3.4634 22.0833 2.86946 21.3584 3.02481 20.5817L3.97724 15.8195C4.27065 14.3528 5.55818 13.2968 7.05397 13.2968H16.9461Z" fill="#1A1D20"/>
<path d="M11.7845 2C14.5575 2 16.8054 4.2479 16.8054 7.02082C16.8054 9.79375 14.5575 12.0416 11.7845 12.0416C9.01161 12.0416 6.76371 9.79375 6.76371 7.02082C6.76371 4.2479 9.01161 2 11.7845 2Z" fill="#1A1D20"/>
</svg>
