<svg width="24" height="24" viewBox="0 0 24 24" fill="none" xmlns="http://www.w3.org/2000/svg">
<path d="M21.4651 11.4879C21.4651 6.50383 17.2274 2.46343 12 2.46343C6.77256 2.46343 2.53488 6.50383 2.53488 11.4879C2.53488 14.3506 3.93368 16.9015 6.11628 18.5555V15.8782C6.11628 15.4741 6.45987 15.1465 6.88372 15.1465C7.30757 15.1465 7.65116 15.4741 7.65116 15.8782V19.9389C7.65116 20.319 7.34588 20.6355 6.94867 20.6677L2.85565 20.9974C2.43344 21.0314 2.06212 20.7329 2.02625 20.3304C1.9906 19.9279 2.3036 19.5738 2.72574 19.5396L4.75027 19.3758C2.45224 17.4541 1 14.633 1 11.4879C1 5.6956 5.92487 1 12 1C18.0751 1 23 5.6956 23 11.4879C23 15.3707 20.7868 18.7601 17.501 20.5724C17.1342 20.7747 16.664 20.6553 16.4518 20.3057C16.2396 19.9559 16.3648 19.5077 16.7316 19.3053C19.5627 17.7438 21.4651 14.8273 21.4651 11.4879Z" fill="#A0A4A8"/>
</svg>
