<svg width="24" height="24" viewBox="0 0 24 24" fill="none" xmlns="http://www.w3.org/2000/svg">
<path d="M19.75 19C19.75 18.0335 18.9665 17.25 18 17.25C17.0336 17.2501 16.25 18.0336 16.25 19C16.25 19.9664 17.0336 20.7499 18 20.75C18.9665 20.75 19.75 19.9665 19.75 19ZM7.83984 12C7.83984 10.9838 7.01622 10.1602 6 10.1602C4.98387 10.1603 4.16016 10.9838 4.16016 12C4.16016 13.0162 4.98387 13.8397 6 13.8398C7.01622 13.8398 7.83984 13.0162 7.83984 12ZM19.75 5C19.75 4.0335 18.9665 3.25 18 3.25C17.0336 3.2501 16.25 4.03356 16.25 5C16.25 5.96644 17.0336 6.7499 18 6.75C18.9665 6.75 19.75 5.9665 19.75 5ZM21.25 5C21.25 6.79493 19.7949 8.25 18 8.25C17.074 8.24995 16.2404 7.86074 15.6484 7.23926L9.19043 11.0068C9.28799 11.3205 9.33984 11.6542 9.33984 12C9.33984 12.3455 9.28781 12.6787 9.19043 12.9922L15.6514 16.7568C16.2431 16.1374 17.0757 15.7501 18 15.75C19.7949 15.75 21.25 17.2051 21.25 19C21.25 20.7949 19.7949 22.25 18 22.25C16.2052 22.2499 14.75 20.7949 14.75 19C14.75 18.6691 14.7997 18.3497 14.8916 18.0488L8.43359 14.2861C7.82435 14.9344 6.9598 15.3398 6 15.3398C4.15544 15.3397 2.66016 13.8446 2.66016 12C2.66016 10.1554 4.15544 8.66026 6 8.66016C6.95904 8.66016 7.82345 9.06457 8.43262 9.71191L14.8896 5.94434C14.799 5.64548 14.75 5.32845 14.75 5C14.75 3.20514 16.2052 1.7501 18 1.75C19.7949 1.75 21.25 3.20507 21.25 5Z" fill="#1A1D20"/>
</svg>
