<svg width="24" height="24" viewBox="0 0 24 24" fill="none" xmlns="http://www.w3.org/2000/svg">
<path d="M18.6603 10.9744C18.6603 6.86764 15.3311 3.53847 11.2244 3.53847C7.11764 3.53847 3.78847 6.86764 3.78847 10.9744C3.78847 15.0811 7.11764 18.4103 11.2244 18.4103C13.2403 18.4103 15.0673 17.6065 16.4067 16.3039C16.4275 16.2766 16.4508 16.2508 16.4758 16.2258C16.5008 16.2008 16.5266 16.1775 16.5539 16.1567C17.8565 14.8173 18.6603 12.9903 18.6603 10.9744ZM20.1988 10.9744C20.1988 13.1756 19.4046 15.1904 18.0894 16.7516L22.0247 20.687C22.3251 20.9874 22.3251 21.4743 22.0247 21.7747C21.7243 22.0751 21.2374 22.0751 20.937 21.7747L17.0016 17.8394C15.4404 19.1546 13.4256 19.9488 11.2244 19.9488C6.26797 19.9488 2.25 15.9308 2.25 10.9744C2.25 6.01797 6.26797 2 11.2244 2C16.1808 2 20.1988 6.01797 20.1988 10.9744Z" fill="#1A1D20"/>
</svg>
