<svg width="24" height="24" viewBox="0 0 24 24" fill="none" xmlns="http://www.w3.org/2000/svg">
<path d="M21.6068 2.35011C22.2063 2.10731 22.8367 2.62523 22.7142 3.26026L19.3978 20.4204C19.2302 21.2862 18.2432 21.7106 17.4994 21.2368L12.8871 18.2983L9.96127 20.3179C9.2536 20.8058 8.27624 20.4501 8.04721 19.6216L6.58139 14.314L2.62045 12.2651C1.67252 11.7743 1.73656 10.3975 2.72592 9.99659L21.6068 2.35011ZM8.55112 13.7593L17.9945 19.7739L20.8802 4.83741L8.55112 13.7593ZM9.39877 18.8823L11.5121 17.4233L8.45932 15.479L9.39877 18.8823ZM3.79135 11.1821L7.1517 12.9204L16.8753 5.88331L3.79135 11.1821Z" fill="#1A1D20"/>
</svg>
