<svg width="24" height="24" viewBox="0 0 24 24" fill="none" xmlns="http://www.w3.org/2000/svg">
<path d="M20.1271 18.8293C20.1271 17.8863 19.3263 17.122 18.3385 17.122C17.3507 17.122 16.5498 17.8864 16.5498 18.8293C16.5498 19.7721 17.3507 20.5365 18.3385 20.5366C19.3263 20.5366 20.1271 19.7722 20.1271 18.8293ZM7.95413 12C7.95413 11.0086 7.11233 10.205 6.07369 10.205C5.03513 10.2051 4.19325 11.0086 4.19325 12C4.19325 12.9914 5.03513 13.7949 6.07369 13.795C7.11233 13.795 7.95413 12.9914 7.95413 12ZM20.1271 5.17073C20.1271 4.22781 19.3263 3.46341 18.3385 3.46341C17.3507 3.46351 16.5498 4.22787 16.5498 5.17073C16.5498 6.1136 17.3507 6.87795 18.3385 6.87805C19.3263 6.87805 20.1271 6.11366 20.1271 5.17073ZM21.6602 5.17073C21.6602 6.92188 20.173 8.34146 18.3385 8.34146C17.392 8.34141 16.54 7.9617 15.935 7.35537L9.33451 11.0311C9.43422 11.3371 9.48722 11.6626 9.48722 12C9.48722 12.3371 9.43404 12.6622 9.33451 12.968L15.938 16.6408C16.5428 16.0365 17.3938 15.6586 18.3385 15.6585C20.173 15.6585 21.6602 17.0781 21.6602 18.8293C21.6602 20.5804 20.173 22 18.3385 22C16.504 21.9999 15.0167 20.5804 15.0167 18.8293C15.0167 18.5064 15.0675 18.1948 15.1615 17.9013L8.56098 14.2304C7.93829 14.8628 7.05466 15.2584 6.07369 15.2584C4.18843 15.2583 2.66016 13.7996 2.66016 12C2.66016 10.2004 4.18843 8.74171 6.07369 8.74162C7.05389 8.74162 7.93737 9.13616 8.55998 9.76772L15.1595 6.09204C15.0669 5.80047 15.0167 5.49117 15.0167 5.17073C15.0167 3.41964 16.504 2.0001 18.3385 2C20.173 2 21.6602 3.41958 21.6602 5.17073Z" fill="white"/>
</svg>
