<svg width="24" height="24" viewBox="0 0 24 24" fill="none" xmlns="http://www.w3.org/2000/svg">
<path d="M11.1161 2.67594C11.4913 1.96479 12.5098 1.96479 12.885 2.67594L15.4389 7.51645C15.5836 7.79069 15.8473 7.9823 16.1528 8.03516L21.5456 8.96825C22.3379 9.10534 22.6526 10.074 22.0923 10.6506L18.2779 14.5753C18.0617 14.7976 17.961 15.1076 18.0051 15.4146L18.7842 20.8317C18.8986 21.6276 18.0747 22.2263 17.3531 21.8715L12.4418 19.4566C12.1636 19.3197 11.8376 19.3197 11.5593 19.4566L6.648 21.8715C5.92645 22.2263 5.10248 21.6276 5.21693 20.8318L5.99597 15.4146C6.04011 15.1076 5.93938 14.7976 5.72327 14.5753L1.90887 10.6506C1.34847 10.074 1.6632 9.10534 2.45548 8.96825L7.84827 8.03516C8.15381 7.9823 8.41753 7.79069 8.56223 7.51645L11.1161 2.67594Z" fill="#1A1D20"/>
<path d="M10.4536 2.32584C11.1102 1.08149 12.8927 1.08149 13.5493 2.32584L16.103 7.16666C16.1392 7.23519 16.2054 7.28333 16.2817 7.29654L21.6743 8.22916C23.0607 8.46905 23.6119 10.1644 22.6313 11.1735L18.8169 15.0983C18.7628 15.1539 18.7375 15.2315 18.7485 15.3083L19.5278 20.7253C19.7279 22.1179 18.2856 23.1654 17.0229 22.5446L12.1118 20.1296C12.0422 20.0954 11.9606 20.0954 11.8911 20.1296L6.97996 22.5446C5.71732 23.1654 4.27499 22.1179 4.47508 20.7253L5.25438 15.3083C5.26541 15.2315 5.24004 15.1539 5.18602 15.0983L1.37156 11.1735C0.391017 10.1644 0.942143 8.46905 2.32859 8.22916L7.72117 7.29654C7.79754 7.28333 7.8637 7.23519 7.89988 7.16666L10.4536 2.32584ZM12.2221 3.02603C12.1283 2.84842 11.8746 2.84842 11.7807 3.02603L9.22606 7.86686C8.9728 8.34654 8.51154 8.68159 7.97703 8.77408L2.58445 9.70768C2.38643 9.74194 2.30776 9.98344 2.44773 10.1276L6.26219 14.0524C6.64034 14.4415 6.81593 14.9841 6.73875 15.5212L5.96043 20.9381C5.93183 21.137 6.13752 21.2874 6.31785 21.1989L11.229 18.7838C11.7159 18.5444 12.287 18.5444 12.7739 18.7838L17.685 21.1989C17.8654 21.2873 18.0711 21.137 18.0425 20.9381L17.2641 15.5212C17.187 14.9841 17.3626 14.4415 17.7407 14.0524L21.5552 10.1276C21.6951 9.98344 21.6165 9.74194 21.4184 9.70768L16.0259 8.77408C15.4914 8.68159 15.0301 8.34654 14.7768 7.86686L12.2221 3.02603Z" fill="#1A1D20"/>
</svg>
