<svg width="24" height="24" viewBox="0 0 24 24" fill="none" xmlns="http://www.w3.org/2000/svg">
<path d="M18.4516 17.7596C18.4514 16.802 17.6995 16.0632 16.8175 16.0631C16.26 16.0631 15.7543 16.3583 15.4577 16.8174C15.4438 16.85 15.429 16.8826 15.4103 16.9138C15.3968 16.9363 15.3813 16.9576 15.3659 16.9781C15.2496 17.2103 15.1825 17.4752 15.1825 17.7596C15.1825 18.7175 15.9353 19.4571 16.8175 19.4571C17.6996 19.457 18.4516 18.7174 18.4516 17.7596ZM8.81754 12C8.81754 11.0421 8.0647 10.3025 7.18246 10.3025C6.30036 10.3026 5.54839 11.0422 5.54839 12C5.54839 12.9578 6.30036 13.6974 7.18246 13.6975C7.76965 13.6975 8.29715 13.3683 8.58569 12.8669C8.58963 12.8598 8.59359 12.8527 8.59778 12.8458C8.60128 12.8399 8.60525 12.8344 8.60887 12.8287C8.74047 12.5854 8.81754 12.304 8.81754 12ZM18.4516 6.2404C18.4516 5.28259 17.6996 4.54304 16.8175 4.54286C15.9353 4.54286 15.1825 5.28247 15.1825 6.2404C15.1825 6.545 15.259 6.82748 15.3911 7.07109C15.3942 7.07595 15.3982 7.08021 15.4012 7.08516C15.4034 7.08887 15.4051 7.09347 15.4073 7.09721C15.6944 7.60449 16.2263 7.93694 16.8175 7.93694C17.6995 7.93675 18.4514 7.19802 18.4516 6.2404ZM20 6.2404C19.9998 8.00888 18.5955 9.47961 16.8175 9.4798C15.9173 9.4798 15.1132 9.10227 14.5383 8.50045L10.2329 11.0759C10.3188 11.3696 10.3659 11.6798 10.3659 12C10.3659 12.3195 10.3184 12.6289 10.2329 12.9221L14.5413 15.4955C15.116 14.8958 15.9191 14.5202 16.8175 14.5202C18.5955 14.5204 19.9998 15.9911 20 17.7596C20 19.5283 18.5956 20.9998 16.8175 21C15.0393 21 13.6341 19.5284 13.6341 17.7596C13.6341 17.4384 13.6806 17.127 13.7671 16.8325L9.45968 14.26C8.88479 14.8614 8.08228 15.2404 7.18246 15.2404C5.40439 15.2402 4 13.7687 4 12C4 10.2313 5.40439 8.75978 7.18246 8.7596C8.08202 8.7596 8.88482 9.13789 9.45968 9.73895L13.7661 7.1635C13.6804 6.87015 13.6341 6.56014 13.6341 6.2404C13.6341 4.47163 15.0393 3 16.8175 3C18.5956 3.00019 20 4.47174 20 6.2404Z" fill="white"/>
</svg>
