<svg width="24" height="24" viewBox="0 0 24 24" fill="none" xmlns="http://www.w3.org/2000/svg">
<path d="M20.2286 19C20.6546 19 21 19.3358 21 19.75C21 20.1642 20.6546 20.5 20.2286 20.5H12.5143C12.0882 20.5 11.7429 20.1642 11.7429 19.75C11.7429 19.3358 12.0882 19 12.5143 19H20.2286ZM14.5985 3.66808C14.9015 3.42778 15.3487 3.44524 15.6311 3.71984L20.2597 8.21981C20.561 8.5127 20.561 8.98746 20.2597 9.28035L9.45971 19.7803C9.31504 19.9209 9.11888 20 8.91429 20H3.77143C3.34538 20 3 19.6642 3 19.25V15.25C3 15.0511 3.08133 14.8604 3.226 14.7198L14.5403 3.71984L14.5985 3.66808ZM4.54286 15.5606V18.5H8.59487L15.5377 11.7501L12 8.31063L4.54286 15.5606ZM13.0908 7.25009L16.6286 10.6895L18.6234 8.75008L15.0857 5.31065L13.0908 7.25009Z" fill="white"/>
</svg>
