<svg width="24" height="24" viewBox="0 0 24 24" fill="none" xmlns="http://www.w3.org/2000/svg">
<path d="M19.25 19C19.25 18.3096 18.6904 17.75 18 17.75H6C5.30964 17.75 4.75 18.3096 4.75 19C4.75 19.6904 5.30964 20.25 6 20.25H18C18.6904 20.25 19.25 19.6904 19.25 19ZM4 10.75C4.41421 10.75 4.75 11.0858 4.75 11.5C4.75 11.9142 4.41421 12.25 4 12.25H2C1.58579 12.25 1.25 11.9142 1.25 11.5C1.25 11.0858 1.58579 10.75 2 10.75H4ZM22 10.75C22.4142 10.75 22.75 11.0858 22.75 11.5C22.75 11.9142 22.4142 12.25 22 12.25H20C19.5858 12.25 19.25 11.9142 19.25 11.5C19.25 11.0858 19.5858 10.75 20 10.75H22ZM3.46973 4.96973C3.76262 4.67683 4.23738 4.67683 4.53027 4.96973L6.03027 6.46973C6.32317 6.76262 6.32317 7.23738 6.03027 7.53027C5.73738 7.82317 5.26262 7.82317 4.96973 7.53027L3.46973 6.03027C3.17683 5.73738 3.17683 5.26262 3.46973 4.96973ZM19.4697 4.96973C19.7626 4.67683 20.2374 4.67683 20.5303 4.96973C20.8232 5.26262 20.8232 5.73738 20.5303 6.03027L19.0303 7.53027C18.7374 7.82317 18.2626 7.82317 17.9697 7.53027C17.6768 7.23738 17.6768 6.76262 17.9697 6.46973L19.4697 4.96973ZM11.25 4.5V2.5C11.25 2.08579 11.5858 1.75 12 1.75C12.4142 1.75 12.75 2.08579 12.75 2.5V4.5C12.75 4.91421 12.4142 5.25 12 5.25C11.5858 5.25 11.25 4.91421 11.25 4.5ZM16.25 13C16.25 10.6528 14.3472 8.75 12 8.75C9.65279 8.75 7.75 10.6528 7.75 13V16.25H16.25V13ZM17.75 16.25H18C19.5188 16.25 20.75 17.4812 20.75 19C20.75 20.5188 19.5188 21.75 18 21.75H6C4.48122 21.75 3.25 20.5188 3.25 19C3.25 17.4812 4.48122 16.25 6 16.25H6.25V13C6.25 9.82436 8.82436 7.25 12 7.25C15.1756 7.25 17.75 9.82436 17.75 13V16.25Z" fill="#1A1D20"/>
</svg>
