<svg width="24" height="24" viewBox="0 0 24 24" fill="none" xmlns="http://www.w3.org/2000/svg">
<path d="M16.9141 6.22922C17.2197 5.92359 17.7151 5.92359 18.0208 6.22922C18.3264 6.53485 18.3264 7.03026 18.0208 7.33589L13.3567 12L18.0208 16.6641C18.3264 16.9697 18.3264 17.4651 18.0208 17.7708C17.7151 18.0764 17.2197 18.0764 16.9141 17.7708L12.25 13.1067L7.58589 17.7708C7.28026 18.0764 6.78485 18.0764 6.47922 17.7708C6.17359 17.4651 6.17359 16.9697 6.47922 16.6641L11.1433 12L6.47922 7.33589C6.17359 7.03026 6.17359 6.53485 6.47922 6.22922C6.78485 5.92359 7.28026 5.92359 7.58589 6.22922L12.25 10.8933L16.9141 6.22922Z" fill="#1A1D20"/>
</svg>
