<svg width="120" height="17" viewBox="0 0 120 17" fill="none" xmlns="http://www.w3.org/2000/svg">
<path d="M0 16.223H10.5353V12.4641H4.20432V0H0V16.223Z" fill="white"/>
<path d="M13.2061 0H17.6576V16.223H13.2061V0Z" fill="white"/>
<path d="M20.5756 0V16.223H24.6317V6.4298L30.6643 16.223H34.7698V0H30.6643V8.85354L25.1743 0H20.5756Z" fill="white"/>
<path d="M38.1833 16.223H42.1893V11.3267L43.6733 9.69441L47.6794 16.223H52.6252L46.5431 7.32065L52.0331 0.000583891H47.2357L42.2399 6.28207V0H38.1838L38.1833 16.223Z" fill="white"/>
<path d="M64.8 3.11742L64.0524 4.99687C64.0524 4.99687 62.9144 2.91857 59.3532 2.91857C58.3956 2.88094 57.4429 3.0723 56.5742 3.47674C55.7054 3.88118 54.9456 4.48705 54.358 5.24402C53.4616 6.46934 52.9455 7.93129 52.874 9.44779C52.8158 10.4533 52.991 11.4587 53.3857 12.3853C53.7804 13.312 54.3841 14.1348 55.1494 14.7896C56.93 16.5202 59.6498 16.4713 59.6498 16.4713C59.6498 16.4713 62.6672 16.3225 64.0524 14.5919L64.7938 16.2236H67.5136V3.11742H64.8ZM61.9438 11.9827C61.3164 12.558 60.4919 12.8701 59.6408 12.8545C58.8389 12.8453 58.0575 12.6001 57.394 12.1496C57.0683 11.8316 56.8127 11.4491 56.6434 11.0266C56.4741 10.6041 56.395 10.1509 56.411 9.69607C56.3737 8.8123 56.6833 7.94894 57.2738 7.2903C57.5686 6.95293 57.9321 6.68245 58.3399 6.49694C58.7478 6.31144 59.1905 6.21519 59.6385 6.21465C60.0895 6.20708 60.537 6.29392 60.9524 6.46959C61.3678 6.64526 61.7418 6.90587 62.0505 7.23469C62.608 7.93098 62.8974 8.80406 62.8661 9.69549C62.8426 10.5434 62.5153 11.3559 61.9438 11.9827Z" fill="white"/>
<path d="M70.2339 3.16519V16.223H74.1411V8.6575C74.1411 8.6575 74.3388 6.67921 76.7131 6.67921C77.1467 6.6762 77.574 6.78356 77.9547 6.99119C78.3353 7.19882 78.6569 7.49989 78.8892 7.86607L80.7782 5.38055C80.3112 4.71446 79.7112 4.15235 79.0161 3.7297C78.4368 3.37768 77.7646 3.20882 77.0877 3.24521C76.4108 3.28159 75.7606 3.52153 75.2224 3.93362C74.8102 4.29063 74.4288 4.68164 74.0821 5.10251L73.1548 3.16687L70.2339 3.16519Z" fill="white"/>
<path d="M109.456 3.16519V16.223H113.363V8.6575C113.363 8.6575 113.561 6.67921 115.935 6.67921C116.369 6.67626 116.796 6.78364 117.177 6.99126C117.557 7.19888 117.879 7.49992 118.112 7.86607L120 5.38055C119.533 4.71421 118.933 4.15204 118.238 3.7297C117.659 3.37778 116.987 3.20896 116.31 3.24534C115.633 3.28172 114.983 3.52163 114.445 3.93362C114.033 4.29076 113.651 4.68175 113.304 5.10251L112.377 3.16687L109.456 3.16519Z" fill="white"/>
<path d="M93.818 9.42198C93.9197 6.99262 92.2688 4.79806 92.2688 4.79806C91.7161 4.14878 91.0247 3.63179 90.2457 3.28513C89.4666 2.93847 88.6197 2.77097 87.7674 2.79501C86.9587 2.74443 86.1483 2.86105 85.3867 3.13754C84.625 3.41403 83.9285 3.84447 83.3406 4.40205C82.6666 5.10331 82.1417 5.93384 81.7974 6.84352C81.4532 7.7532 81.2967 8.72316 81.3376 9.69494C81.3595 11.4509 81.9912 13.1447 83.1244 14.4863C84.3241 15.6945 85.9176 16.432 87.6152 16.5646C91.8156 16.5646 92.8126 14.0728 92.8126 14.0728L90.5377 12.2192C90.1564 12.5676 89.7097 12.8369 89.2235 13.0114C88.7374 13.1859 88.2215 13.2622 87.7056 13.2359C87.3182 13.2381 86.9355 13.1516 86.5867 12.9829C86.2379 12.8143 85.9324 12.568 85.6936 12.263C85.3631 11.8347 85.1317 11.3385 85.0162 10.8099H92.3424C93.4063 10.7571 93.818 9.42198 93.818 9.42198ZM85.119 8.10535C85.2643 7.52314 85.5974 7.00501 86.0668 6.63116C86.5362 6.25731 87.1157 6.04856 87.7157 6.03717C88.3396 6.03863 88.9466 6.24036 89.4472 6.61268C89.9479 6.98501 90.3158 7.50825 90.4967 8.10535H85.119Z" fill="white"/>
<path d="M108.012 9.422C108.114 6.99265 106.463 4.79809 106.463 4.79809C105.91 4.14883 105.219 3.63182 104.44 3.28516C103.662 2.93849 102.815 2.771 101.963 2.79504C101.154 2.74415 100.343 2.86061 99.5818 3.13712C98.8201 3.41363 98.1236 3.84425 97.5359 4.40208C96.8619 5.10333 96.337 5.93386 95.9927 6.84354C95.6484 7.75322 95.492 8.72318 95.5329 9.69497C95.5548 11.4509 96.1865 13.1447 97.3197 14.4863C98.5194 15.6945 100.113 16.4319 101.81 16.5646C106.01 16.5646 107.008 14.0729 107.008 14.0729L104.732 12.2193C104.351 12.5677 103.904 12.837 103.418 13.0115C102.932 13.186 102.416 13.2623 101.9 13.2359C101.513 13.2379 101.13 13.1513 100.782 12.9827C100.433 12.8141 100.127 12.5679 99.8883 12.2631C99.5592 11.8344 99.329 11.3381 99.2143 10.81H106.541C107.601 10.7572 108.012 9.422 108.012 9.422ZM99.3131 8.10538C99.4586 7.52326 99.7918 7.00525 100.261 6.63143C100.731 6.25761 101.31 6.04878 101.91 6.03719C102.534 6.0385 103.141 6.24018 103.642 6.6125C104.143 6.98483 104.511 7.50814 104.692 8.10538H99.3131Z" fill="white"/>
</svg>
